<?xml version="1.0" standalone="no"?>
<!DOCTYPE svg PUBLIC "-//W3C//DTD SVG 1.1//EN" "http://www.w3.org/Graphics/SVG/1.1/DTD/svg11.dtd" >
<svg xmlns="http://www.w3.org/2000/svg">
<metadata></metadata>
<defs>
<font id="montereymediumflfregular" horiz-adv-x="385" >
<font-face units-per-em="1000" ascent="800" descent="-200" />
<missing-glyph horiz-adv-x="304" />
<glyph horiz-adv-x="280" d="M144 624q29 0 57 11.5t50 35.5l-22 24q-18 -19 -39.5 -28.5t-44.5 -9.5q-49 0 -88 39l-21 -25q22 -23 50 -35t58 -12z" />
<glyph horiz-adv-x="196" d="M144 665q0 19 -13.5 32.5t-32.5 13.5t-32.5 -13.5t-13.5 -32.5t13.5 -32.5t32.5 -13.5t32.5 13.5t13.5 32.5z" />
<glyph horiz-adv-x="240" d="M202 668q0 34 -23.5 57.5t-57.5 23.5t-57.5 -23.5t-23.5 -57.5t23.5 -57.5t57.5 -23.5t57.5 23.5t23.5 57.5zM60 668q0 26 17.5 43.5t43.5 17.5t43.5 -17.5t17.5 -43.5t-17.5 -43.5t-43.5 -17.5t-43.5 17.5t-17.5 43.5z" />
<glyph unicode="&#xa;" horiz-adv-x="270" d="M79 732q-9 -32 -19.5 -71t-18.5 -77q47 68 86 126q5 7 7 11.5t2 12.5q0 11 -7.5 17.5t-16.5 6.5q-12 0 -20 -4.5t-13 -21.5zM171 722q-9 -33 -19 -71.5t-19 -76.5q24 33 45 64.5l41 61.5q5 6 7.5 11t2.5 13q0 11 -7.5 17.5t-16.5 6.5q-12 0 -20 -4.5t-14 -21.5z" />
<glyph horiz-adv-x="170" d="M63 -84q0 27 14 45t34 39h-31q-18 -16 -35.5 -35.5t-17.5 -48.5q0 -32 17 -49t45 -17q12 0 26 3t28 11l-12 20q-7 -3 -14 -4t-13 -1q-18 0 -29.5 10t-11.5 27z" />
<glyph horiz-adv-x="316" d="M181 603l114 115h-34l-100 -72l-100 72h-35l114 -115h41z" />
<glyph unicode="&#xd;" horiz-adv-x="209" d="M162 490h-121v-490h121v490z" />
<glyph horiz-adv-x="475" d="M5 0h35l425 700h-35z" />
<glyph horiz-adv-x="466" d="M400 0v490h-231v175q0 26 13 40t42 14h45v35h-93q-38 0 -62.5 -9.5t-39.5 -26t-21 -39t-6 -47.5v-632h122v455h111v-455h120zM404 666q0 26 -19 45t-45 19t-45 -19t-19 -45t19 -45t45 -19t45 19t19 45z" />
<glyph horiz-adv-x="570" d="M169 666q0 35 19 47t46 12q23 0 42.5 -6t33.5 -11v-612q0 -48 27.5 -72t66.5 -24h141v35h-55q-26 0 -40.5 12.5t-14.5 42.5v660h-125v-13q-14 5 -36.5 11t-57.5 6q-80 0 -124.5 -28.5t-44.5 -94.5v-631h122v456h75v34h-75v176z" />
<glyph horiz-adv-x="465" d="M50 341l-48 -36v-46l48 36v-295h389v40h-254v348l50 38v46l-50 -38v266h-135v-359z" />
<glyph horiz-adv-x="325" d="M50 341l-48 -36v-46l48 36v-189q0 -60 30.5 -83t85.5 -23h124v35h-52q-32 0 -47.5 14t-15.5 50v282l60 45v46l-60 -45v323h-125v-409z" />
<glyph horiz-adv-x="665" d="M602 700h-527v-40h347l-382 -660h560v40h-381zM356 738l114 115h-34l-100 -72l-100 72h-35l114 -115h41z" />
<glyph horiz-adv-x="465" d="M49 490v-30h153q33 0 46 -11.5t13 -26.5q0 -12 -6 -22l-226 -400h407v30h-177q-23 0 -33.5 10t-10.5 24t10 32l174 304q15 25 15 46q0 20 -15 32t-47 12h-303zM251 603l114 115h-34l-100 -72l-100 72h-35l114 -115h41z" />
<glyph unicode=" "  horiz-adv-x="304" />
<glyph unicode="&#x09;" horiz-adv-x="304" />
<glyph unicode="&#xa0;" horiz-adv-x="304" />
<glyph unicode="!" horiz-adv-x="230" d="M115 699q-20 0 -37 -13.5t-17 -45.5q0 -46 6 -106.5t14.5 -126t16 -131t10.5 -120.5q2 -17 10 -17q9 0 10 17q3 55 9.5 120.5t13.5 131t12.5 126t5.5 106.5q0 32 -17 45.5t-37 13.5zM167 40q0 20 -13.5 33.5t-33.5 13.5t-33.5 -13.5t-13.5 -33.5t13.5 -33.5t33.5 -13.5 t33.5 13.5t13.5 33.5z" />
<glyph unicode="&#x22;" horiz-adv-x="338" d="M68 659q0 -7 3.5 -25t8.5 -40t10.5 -45.5t9.5 -41.5q4 18 10.5 41.5t11.5 46l9 40.5t4 25q0 14 -9.5 21.5t-23.5 7.5t-24 -8t-10 -22zM212 659q0 -7 3.5 -25t8.5 -40t10.5 -45.5t9.5 -41.5q4 18 10.5 41.5t11.5 46l9 40.5t4 25q0 14 -9.5 21.5t-23.5 7.5t-24 -8t-10 -22z " />
<glyph unicode="#" horiz-adv-x="630" d="M276 508l42 123h-34l-40 -123h-144l-11 -24h146l-36 -112h-130l-11 -24h133l-42 -124h33l42 124h126l-42 -128h33l42 128h152l11 24h-155l38 112h144l11 24h-148l41 123h-33l-41 -123h-127zM231 372l38 112h127l-37 -112h-128z" />
<glyph unicode="$" horiz-adv-x="621" d="M300 668l-47 -206q-15 7 -30.5 15.5t-29 20t-22 26.5t-8.5 35q0 27 11 47.5t29.5 34t43.5 20.5t53 7zM397 655l-53 -233q-14 5 -29.5 11.5t-29.5 12.5l50 222q14 -1 31.5 -4.5t30.5 -8.5zM352 299q20 -9 40.5 -21.5t36.5 -28.5t26 -37t10 -46q0 -36 -13.5 -61t-35 -40.5 t-48.5 -23t-54 -7.5h-11t-11 1zM170 -60l17 76q14 -6 31 -11t30 -7l-13 -58h35l12 52q11 -2 22 -2h23q61 0 109 16t81 43t50 61t17 70q0 41 -16.5 74.5t-44.5 61t-66 50t-81 41.5l53 236q23 -11 40 -25.5t31 -30.5l38 24q-18 21 -40 39.5t-60 32.5l15 62h-35l-12 -52 q-14 4 -31 6.5t-31 4.5l8 41h-35l-9 -41h-11q-55 0 -100.5 -11.5t-78 -33.5t-50.5 -53.5t-18 -70.5q0 -36 16.5 -65t42 -52t57.5 -40t62 -30l-62 -274q-29 14 -50.5 36.5t-32.5 45.5l-39 -16q15 -29 41.5 -57t70.5 -52l-21 -91h35zM320 314l-63 -276q-29 5 -60 20l63 278 q14 -6 29.5 -11.5t30.5 -10.5z" />
<glyph unicode="%" horiz-adv-x="936" d="M476 521q0 43 -18 79t-48 61.5t-69 39.5t-82 14t-82.5 -14.5t-69.5 -40.5t-47.5 -61t-17.5 -76q0 -45 18.5 -81.5t49 -62t69.5 -39.5t80 -14q43 0 82.5 14t69.5 39.5t47.5 61.5t17.5 80zM134 523q0 47 10 79.5t27 53t39.5 30t48.5 9.5t49 -9.5t40 -30.5t26.5 -54t9.5 -80 q0 -49 -8 -82.5t-24 -54t-39 -29.5t-54 -9q-29 0 -52.5 9t-39.5 30t-24.5 54.5t-8.5 83.5zM900 186q0 43 -18 79t-48 61.5t-69 39.5t-82 14t-82.5 -14.5t-69.5 -40.5t-47.5 -61t-17.5 -76q0 -45 18.5 -81.5t49 -62t69.5 -39.5t80 -14q43 0 82.5 14t69.5 39.5t47.5 61.5 t17.5 80zM558 188q0 47 10 79.5t27 53t39.5 30t48.5 9.5t49 -9.5t40 -30.5t26.5 -54t9.5 -80q0 -49 -8 -82.5t-24 -54t-39 -29.5t-54 -9q-29 0 -52.5 9t-39.5 30t-24.5 54.5t-8.5 83.5zM142 0h47l604 700h-47z" />
<glyph unicode="&#x26;" horiz-adv-x="752" d="M609 0h123l-129 131q32 27 48.5 60t16.5 65q0 29 -13 53.5t-24 40.5h-40q14 -21 25.5 -41t11.5 -52q0 -54 -54 -98l-240 241q27 13 54.5 29.5t50 36t36.5 43.5t14 53q0 64 -52.5 103t-146.5 39q-35 0 -66.5 -11.5t-55.5 -31.5t-38 -46.5t-14 -56.5q0 -39 15.5 -66 t29.5 -42l48 -47q-28 -15 -60 -36.5t-59 -49.5t-45 -62t-18 -75q0 -29 9 -62t32.5 -61.5t64 -47.5t103.5 -19q65 0 110.5 8.5t79 22t58 28.5t47.5 29zM414 563q0 -22 -10 -39.5t-27.5 -31.5t-39.5 -26t-46 -23l-47 47q-44 44 -44 88t29 68t69 24q56 0 86 -30.5t30 -76.5z M138 185q0 62 30 101.5t83 72.5l249 -251q-16 -12 -38.5 -24.5t-48 -22.5t-51.5 -16.5t-50 -6.5q-33 0 -64 9t-55.5 27.5t-39.5 46t-15 64.5z" />
<glyph unicode="'" horiz-adv-x="152" d="M43 659q0 -7 3.5 -25t8.5 -40t10.5 -45.5t9.5 -41.5q4 18 10.5 41.5t11.5 46l9 40.5t4 25q0 14 -9.5 21.5t-23.5 7.5t-24 -8t-10 -22z" />
<glyph unicode="(" horiz-adv-x="200" d="M101 359q0 87 17.5 180.5t57.5 199.5h-64q-20 -53 -34.5 -97.5t-23.5 -88.5t-13.5 -90.5t-4.5 -103.5q0 -64 3.5 -117t12 -102.5t23 -100.5t37.5 -110h64q-45 119 -60 224t-15 206z" />
<glyph unicode=")" horiz-adv-x="200" d="M170 358q0 94 -18 185t-58 196h-64q20 -53 34 -106t23 -103t13.5 -94t4.5 -78q0 -41 -3.5 -91t-11.5 -105.5t-23 -115t-37 -118.5h64q23 59 37.5 113.5t23 107t12 104t3.5 105.5z" />
<glyph unicode="*" horiz-adv-x="282" d="M152 584q8 -9 19 -19.5t23.5 -20t24.5 -16t21 -6.5q16 0 16 15q0 9 -11.5 17.5t-28 16t-33.5 13t-27 8.5q11 4 28 9.5t33 12.5t27.5 15.5t11.5 17.5q0 15 -16 15q-9 0 -20.5 -6.5t-23.5 -15.5t-23.5 -20t-20.5 -20q5 27 8.5 43.5t3.5 36.5q0 17 -4 26.5t-14 9.5 t-14.5 -9.5t-4.5 -23.5q0 -22 4 -39.5t9 -43.5q-11 10 -22.5 21t-23 20t-22.5 14.5t-20 5.5q-8 0 -12 -4.5t-4 -10.5q0 -9 11 -17t26.5 -15t32.5 -12.5t30 -9.5q-12 -4 -29 -9.5t-33 -12t-27 -15t-11 -17.5q0 -15 16 -15q11 0 23.5 7t24.5 16.5t22.5 20l17.5 17.5 q-5 -21 -9 -38.5t-4 -44.5q0 -14 4.5 -23.5t14.5 -9.5t14 9.5t4 26.5q0 25 -4 41.5t-8 38.5z" />
<glyph unicode="+" horiz-adv-x="432" d="M190 284h-141v-50h141v-125h54v125h146v50h-146v125h-54v-125z" />
<glyph unicode="," horiz-adv-x="236" d="M122 48q-17 -33 -35 -68t-41 -78q36 30 68 55.5t62 50.5q11 9 14 17.5t3 17.5q0 13 -8.5 21.5t-22.5 8.5q-18 0 -26.5 -7t-13.5 -18z" />
<glyph unicode="-" horiz-adv-x="358" d="M294 284h-225v-50h225v50z" />
<glyph unicode="." horiz-adv-x="238" d="M166 41q0 19 -13.5 32.5t-32.5 13.5t-32.5 -13.5t-13.5 -32.5t13.5 -32.5t32.5 -13.5t32.5 13.5t13.5 32.5z" />
<glyph unicode="/" horiz-adv-x="358" d="M19 0h47l270 700h-47z" />
<glyph unicode="0" horiz-adv-x="585" d="M28 324q0 -58 13.5 -117.5t44 -107.5t79 -78.5t118.5 -30.5q68 0 120.5 31.5t88.5 85t54.5 124.5t18.5 151q0 55 -15 113t-46 105t-79 77.5t-115 30.5q-64 0 -116 -31.5t-89 -84t-57 -122.5t-20 -146zM457 349q0 -60 -10 -117.5t-29.5 -102t-50 -72t-70.5 -27.5 q-44 0 -75 27.5t-50.5 72.5t-29 102t-9.5 117t11 117.5t32 102t51.5 72t69.5 27.5t69 -27.5t50.5 -72.5t30.5 -102t10 -117z" />
<glyph unicode="1" horiz-adv-x="585" d="M376 700l-255 -30l5 -35l115 15v-650h135v700z" />
<glyph unicode="2" horiz-adv-x="585" d="M61 540h47q4 21 17.5 42.5t36.5 39.5t54.5 29.5t72.5 11.5q81 0 116 -31t35 -98q0 -27 -7 -49.5t-19.5 -43t-29 -40t-35.5 -40.5l-320 -361h512v40h-343l237 270q23 27 42.5 52t34 51t23 55.5t8.5 65.5q0 78 -60 124t-180 46q-62 0 -105.5 -16.5t-72.5 -41.5t-44.5 -53.5 t-19.5 -52.5z" />
<glyph unicode="3" horiz-adv-x="585" d="M73 700v-28h276l-246 -244h225q38 0 57 -21.5t19 -47.5q0 -15 -5.5 -29.5t-17.5 -25.5l-307 -304h149l285 288q13 13 19.5 30.5t6.5 37.5q0 19 -7 38.5t-22 35t-37.5 25t-53.5 9.5h-148l239 236h-432z" />
<glyph unicode="4" horiz-adv-x="585" d="M497 700h-132l-358 -467h355v-233h135v233h84v40h-84v427zM362 273h-262l262 357v-357z" />
<glyph unicode="5" horiz-adv-x="585" d="M408 452h-194v168q0 22 9.5 31t32.5 9h250q9 0 15.5 5.5t6.5 15.5q0 9 -7 14t-15 5h-360q-32 0 -46.5 -17t-14.5 -43v-212h229q50 0 71 -20.5t21 -46.5q0 -32 -25 -57l-307 -304h149l270 273q24 24 33 44t9 40q0 18 -7 35t-22 30.5t-39 21.5t-59 8z" />
<glyph unicode="6" horiz-adv-x="585" d="M407 700h-135l-162 -220q-17 -24 -33 -47.5t-28 -51t-19 -62t-7 -79.5q0 -41 13.5 -86t43.5 -82.5t78.5 -62t119.5 -24.5t123.5 18.5t87.5 51.5t52.5 79.5t17.5 102.5q0 37 -16.5 74.5t-48.5 67.5t-79 49t-109 19q-36 0 -62.5 -10t-50.5 -32zM143 202q0 34 10 71.5 t29.5 69t48.5 52t68 20.5q35 0 61 -15.5t43 -41.5t25.5 -59t8.5 -67q0 -47 -11 -86t-30.5 -67t-47.5 -43.5t-61 -15.5q-38 0 -65.5 15.5t-45 41t-25.5 58.5t-8 67z" />
<glyph unicode="7" horiz-adv-x="585" d="M495 700h-443v-40h285q22 0 30.5 -9t8.5 -23t-6 -27l-244 -601h134l268 640q7 15 7 28q0 32 -40 32z" />
<glyph unicode="8" horiz-adv-x="585" d="M514 537q0 37 -15 68t-43.5 53t-68.5 34.5t-89 12.5q-50 0 -91 -12.5t-70 -35t-45.5 -54.5t-16.5 -71q0 -28 12 -51t31.5 -40t44 -27.5t48.5 -13.5q-35 -4 -68.5 -20.5t-60 -44t-42.5 -64t-16 -79.5q0 -50 20 -89t55.5 -66t83 -41t103.5 -14q64 0 115.5 15.5t86.5 44 t54 68.5t19 88q0 50 -17.5 86t-43.5 60t-57 37.5t-59 18.5q18 3 41 14t42.5 29t33 42t13.5 52zM385 546q0 -24 -5 -47.5t-15.5 -42t-27.5 -30t-41 -11.5q-23 0 -40 11t-28.5 29.5t-17.5 42t-6 48.5q0 24 5.5 47.5t17.5 42t29.5 30t41.5 11.5q20 0 36 -11t27.5 -29.5 t17.5 -42t6 -48.5zM172 196q0 34 8 67t24.5 58.5t40.5 41.5t57 16q29 0 51 -15.5t36.5 -41.5t22 -59t7.5 -67t-8 -66t-24 -57.5t-40 -41t-55 -15.5t-53.5 15.5t-37.5 40.5t-22 57.5t-7 66.5z" />
<glyph unicode="9" horiz-adv-x="585" d="M175 0h135l162 220q17 24 33.5 47.5t29 51.5t20.5 62t8 79q0 41 -14 86t-44.5 82.5t-80 62t-120.5 24.5t-123.5 -18.5t-87.5 -51.5t-52.5 -79.5t-17.5 -102.5q0 -41 16.5 -79t48.5 -67t79 -46.5t109 -17.5q36 0 62.5 10t50.5 32zM439 498q0 -34 -10 -71.5t-29.5 -69 t-48.5 -52t-68 -20.5q-35 0 -61 15.5t-43 41.5t-25.5 58.5t-8.5 67.5q0 47 11 86t30.5 67t47.5 43.5t61 15.5q38 0 65.5 -15.5t45 -41t25.5 -58.5t8 -67z" />
<glyph unicode=":" horiz-adv-x="252" d="M173 41q0 19 -13.5 32.5t-32.5 13.5t-32.5 -13.5t-13.5 -32.5t13.5 -32.5t32.5 -13.5t32.5 13.5t13.5 32.5zM173 376q0 19 -13.5 32.5t-32.5 13.5t-32.5 -13.5t-13.5 -32.5t13.5 -32.5t32.5 -13.5t32.5 13.5t13.5 32.5z" />
<glyph unicode=";" horiz-adv-x="236" d="M114 48q-17 -33 -35 -68t-41 -78q36 30 68 55.5t62 50.5q11 9 14 17.5t3 17.5q0 13 -8.5 21.5t-22.5 8.5q-18 0 -26.5 -7t-13.5 -18zM181 376q0 19 -13.5 32.5t-32.5 13.5t-32.5 -13.5t-13.5 -32.5t13.5 -32.5t32.5 -13.5t32.5 13.5t13.5 32.5z" />
<glyph unicode="&#x3c;" horiz-adv-x="315" d="M221 435l-185 -185l185 -180h41l-130 180l130 185h-41z" />
<glyph unicode="=" horiz-adv-x="432" d="M369 349h-300v-50h300v50zM369 214h-300v-50h300v50z" />
<glyph unicode="&#x3e;" horiz-adv-x="315" d="M61 70h41l185 180l-185 185h-41l130 -185z" />
<glyph unicode="?" horiz-adv-x="551" d="M377 556q0 -38 -18 -65t-43.5 -47t-55 -35t-51.5 -28q-17 -10 -24.5 -24t-7.5 -39q0 -21 4 -45.5t10 -48t12.5 -44.5t11.5 -36q5 -17 14 -17q10 0 10 17q0 48 1 82t4.5 57t10.5 36t19 19q11 6 32.5 15t47.5 22t53 29t49 36.5t36 44.5t14 53q0 42 -17.5 74t-49 53.5 t-75.5 32t-98 10.5q-48 0 -83 -12t-58.5 -31t-35 -43t-11.5 -47h38q0 18 9 35.5t28 32t47 23t66 8.5q30 0 51.5 -10.5t34.5 -27t19 -38t6 -42.5zM274 41q0 19 -13.5 32.5t-32.5 13.5t-32.5 -13.5t-13.5 -32.5t13.5 -32.5t32.5 -13.5t32.5 13.5t13.5 32.5z" />
<glyph unicode="@" horiz-adv-x="776" d="M546 196v292h-148q-33 0 -66 -8.5t-58.5 -27.5t-41.5 -48t-16 -70q0 -38 14.5 -67.5t39.5 -49.5t59 -30t74 -10h138q32 0 67.5 7.5t65.5 28t49.5 58t19.5 97.5q0 63 -25.5 119.5t-71 99.5t-108.5 68t-138 25q-74 0 -139 -26t-114 -71t-77.5 -106t-28.5 -131 q0 -75 27 -136.5t73.5 -105t109 -67.5t133.5 -24q40 0 75 6.5t63 16.5t49.5 22t35.5 23l-35 43q-13 -11 -33 -21t-45 -17.5t-53.5 -12.5t-56.5 -5q-59 0 -111.5 19t-91.5 55t-62 87.5t-23 116.5q0 61 23.5 112.5t64.5 88.5t96.5 57.5t119.5 20.5t117 -20.5t91 -56t59 -82 t21 -98.5q0 -61 -15.5 -95.5t-37.5 -51.5t-46.5 -21t-42.5 -4zM477 471v-275h-76q-23 0 -43 10.5t-34.5 29t-23 43.5t-8.5 55q0 29 8.5 54t22.5 43.5t33.5 29t40.5 10.5h80z" />
<glyph unicode="A" horiz-adv-x="765" d="M385 730l-365 -730h50l107 208h335l103 -208h135zM340 539l151 -292h-295z" />
<glyph unicode="B" horiz-adv-x="660" d="M54 700v-700h314q63 0 111.5 17t82 45t51 63t17.5 70q0 36 -15 68t-43.5 56t-70.5 37.5t-96 13.5q-1 0 -1 2v0q0 1 1 1q53 0 91.5 12t64 33t37.5 48.5t12 58.5q0 30 -15.5 61t-48 56.5t-82 41.5t-117.5 16h-293zM189 40v310h141q41 0 72 -13.5t51.5 -35t30.5 -49.5 t10 -57q0 -31 -11 -59t-33 -49.5t-55.5 -34t-77.5 -12.5h-128zM189 390v270h131q40 0 70.5 -11.5t50 -30t29.5 -43t10 -50.5t-9.5 -50.5t-28.5 -43.5t-47 -30t-65 -11h-141z" />
<glyph unicode="C" horiz-adv-x="710" d="M179 350q0 64 15 121.5t45.5 101t76.5 69.5t107 26q42 0 75 -7.5t60 -19.5t48.5 -28t40.5 -33l31 25q-18 18 -41 36t-53.5 33t-70.5 24.5t-92 9.5q-98 0 -171.5 -31t-122.5 -81t-73.5 -114.5t-24.5 -131.5t24.5 -131.5t73.5 -114.5t122.5 -81t171.5 -31q52 0 92 9 t71.5 23.5t57 34t48.5 40.5l-31 25q-18 -16 -38.5 -32.5t-48 -29.5t-64 -21.5t-85.5 -8.5q-61 0 -106.5 25.5t-76 69t-46 101t-15.5 122.5z" />
<glyph unicode="D" horiz-adv-x="700" d="M672 350q0 66 -23.5 128.5t-71 112t-119 79.5t-167.5 30h-241v-700h242q94 0 165.5 30t119 79.5t71.5 112t24 128.5zM185 30v640h100q65 0 111.5 -27.5t76 -72.5t43.5 -102.5t14 -117.5t-16 -117.5t-47 -102.5t-77 -72.5t-106 -27.5h-99z" />
<glyph unicode="E" horiz-adv-x="545" d="M505 660v40h-455v-700h455v40h-320v308h300v40h-300v272h320z" />
<glyph unicode="F" horiz-adv-x="545" d="M504 660v40h-455v-700h135v348h300v40h-300v272h320z" />
<glyph unicode="G" horiz-adv-x="785" d="M186 350q0 60 14 117t43.5 101.5t74 72t105.5 27.5q68 0 124 -22.5t102 -63.5l29 28q-20 20 -44.5 37.5t-58.5 31t-78 21.5t-101 8q-91 0 -159 -31t-113 -81t-67.5 -114.5t-22.5 -131.5t23 -131.5t69.5 -114.5t116.5 -81t163 -31q58 0 107 8.5t89.5 22t73.5 29.5t59 32 v256h-318v-40h183v-226q-28 -14 -66 -28t-95 -14q-62 0 -109 27.5t-79 72t-48.5 101.5t-16.5 117z" />
<glyph unicode="H" horiz-adv-x="685" d="M186 395v305h-135v-700h135v353h316v-353h135v700h-135v-305h-316z" />
<glyph unicode="I" horiz-adv-x="263" d="M68 0h134v700h-134v-700z" />
<glyph unicode="J" horiz-adv-x="390" d="M338 700h-135v-535q0 -41 -7.5 -65.5t-20.5 -38t-31.5 -17.5t-40.5 -4h-67v-40h118q94 0 139 43t45 122v535z" />
<glyph unicode="K" horiz-adv-x="630" d="M187 352v348h-135v-700h135v293l27 28l216 -321h163l-285 422l259 278h-56z" />
<glyph unicode="L" horiz-adv-x="465" d="M185 40v660h-135v-700h389v40h-254z" />
<glyph unicode="M" horiz-adv-x="875" d="M50 700v-700h42v579l296 -593l303 589v-575h135v700h-117l-268 -514l-255 514h-136z" />
<glyph unicode="N" horiz-adv-x="705" d="M50 700v-700h42v544l524 -544h42v700h-42v-506l-489 506h-77z" />
<glyph unicode="O" horiz-adv-x="790" d="M770 347q0 68 -23.5 133t-70.5 116t-117 82.5t-164 31.5q-93 0 -163 -31t-117 -82t-70.5 -116.5t-23.5 -133.5t23.5 -133t70 -116t116.5 -82t164 -31t164 31t117 82t70.5 116t23.5 133zM162 347q0 60 14.5 118t44 103.5t73 73.5t101.5 28t101.5 -27.5t72.5 -73 t43.5 -103.5t14.5 -119q0 -60 -14.5 -118t-43.5 -103t-72.5 -73t-101.5 -28t-101.5 27.5t-73 73t-44 103.5t-14.5 118z" />
<glyph unicode="P" horiz-adv-x="652" d="M189 331h158q68 0 117.5 16t82 42t48 59t15.5 67t-15.5 67t-48 59t-82 42.5t-117.5 16.5h-293v-700h135v331zM189 371v289h141q37 0 65 -11.5t47 -31.5t28.5 -46.5t9.5 -55.5t-9.5 -55.5t-28.5 -46t-47 -31t-65 -11.5h-141z" />
<glyph unicode="Q" horiz-adv-x="788" d="M627 347q0 -47 -9 -93.5t-27 -86.5t-44.5 -71.5t-62.5 -49.5l-37 74h-135l46 -92q-49 9 -86 39.5t-61.5 74t-36.5 97t-12 108.5q0 60 14.5 118t44 103.5t73 73.5t101.5 28t101.5 -27.5t72.5 -73t43.5 -103.5t14.5 -119zM579 -145l-71 144q66 17 115 52.5t81.5 82 t49 101.5t16.5 112q0 68 -23.5 133t-70.5 116t-117 82.5t-164 31.5q-93 0 -163 -31t-117 -82t-70.5 -116.5t-23.5 -133.5q0 -66 22.5 -129.5t67 -114.5t111.5 -83t157 -35l65 -130h135z" />
<glyph unicode="R" horiz-adv-x="605" d="M189 0v660h111q31 0 54 -12t38.5 -32t23 -45t7.5 -52q0 -26 -7.5 -51.5t-22 -45.5t-36.5 -32t-52 -12h-98l219 -378h157l-204 350q33 0 64 12t55 33.5t38.5 53t14.5 70.5q0 35 -14.5 68t-44.5 58t-76.5 40t-110.5 15h-251v-700h135z" />
<glyph unicode="S" horiz-adv-x="621" d="M523 579l30 26q-14 17 -33.5 34.5t-47.5 32t-64 23.5t-81 9q-59 0 -109 -13.5t-86.5 -39t-57 -62.5t-20.5 -85q0 -50 20.5 -86t55.5 -60t82 -39t100 -23q73 -11 114 -46t41 -92q0 -60 -37 -95t-123 -35q-48 0 -86.5 13t-67.5 32.5t-50 42.5t-34 42l-34 -22 q15 -23 39 -48.5t57.5 -48t77 -37t98.5 -14.5q59 0 111 14.5t90.5 41.5t60.5 66t22 89q0 57 -21.5 98.5t-59 70.5t-88.5 46.5t-110 27.5q-65 11 -100 35.5t-35 73.5q0 55 42 84t119 29q61 0 107 -23.5t78 -61.5z" />
<glyph unicode="T" horiz-adv-x="524" d="M500 700h-475v-40h170v-660h135v660h170v40z" />
<glyph unicode="U" horiz-adv-x="608" d="M185 188v512h-135v-487q0 -59 23 -100.5t61.5 -68t88.5 -39t103 -12.5q52 0 95.5 11.5t75 36.5t49 63t17.5 91v505h-41v-513q0 -40 -14.5 -69t-37.5 -48t-52.5 -28t-60.5 -9q-38 0 -69.5 9.5t-54 28.5t-35.5 48.5t-13 68.5z" />
<glyph unicode="V" horiz-adv-x="644" d="M167 700h-147l304 -712l303 712h-46l-207 -488z" />
<glyph unicode="W" horiz-adv-x="928" d="M477 700h-148l123 -275l-79 -206l-214 481h-148l318 -713l147 384l170 -383l271 712h-42l-185 -477z" />
<glyph unicode="X" horiz-adv-x="684" d="M189 700h-161l262 -388l-253 -312h53l223 279l188 -279h161l-254 376l260 324h-52l-232 -288z" />
<glyph unicode="Y" horiz-adv-x="640" d="M175 700h-164l245 -352v-348h138v358l238 342h-49l-204 -291z" />
<glyph unicode="Z" horiz-adv-x="665" d="M602 700h-527v-40h347l-382 -660h560v40h-381z" />
<glyph unicode="[" horiz-adv-x="265" d="M211 716v34h-151v-825h154v33h-69v758h66z" />
<glyph unicode="\" horiz-adv-x="419" d="M80 700h-48l324 -700h48z" />
<glyph unicode="]" horiz-adv-x="265" d="M214 -75v825h-151v-34h66v-758h-69v-33h154z" />
<glyph unicode="^" horiz-adv-x="370" d="M171 680l-112 -250h32l100 165l100 -165h34l-113 250h-41z" />
<glyph unicode="_" horiz-adv-x="392" d="M405 -20h-405v-30h405v30z" />
<glyph unicode="`" horiz-adv-x="215" d="M63 725q-12 0 -19.5 -7.5t-7.5 -18.5t4.5 -17t11.5 -10q11 -7 28.5 -17.5t36 -21.5t37 -21.5t32.5 -18.5q-11 13 -24.5 30t-27.5 34t-26.5 32t-20.5 24q-11 12 -24 12z" />
<glyph unicode="a" horiz-adv-x="500" d="M178 460l-158 -460h41l41 116h235l40 -116h108l-164 460q-8 23 -26.5 36.5t-47.5 13.5q-27 0 -44 -13.5t-25 -36.5zM248 369l75 -213h-207l73 212q4 12 10.5 22t19.5 10t19 -10t10 -21z" />
<glyph unicode="b" horiz-adv-x="608" d="M175 490v258h-125v-748h234q75 0 131 20.5t93.5 54.5t56 78t18.5 92q0 47 -18.5 91.5t-56 78.5t-93.5 54.5t-131 20.5h-109zM455 245q0 -40 -10 -78.5t-32 -69t-55.5 -49t-80.5 -18.5h-102v430h104q46 0 79 -18.5t54.5 -48.5t32 -69t10.5 -79z" />
<glyph unicode="c" horiz-adv-x="524" d="M150 238q0 63 15 106t39 69.5t55.5 38t64.5 11.5q48 0 82 -17.5t63 -51.5l24 22q-29 34 -73 58t-109 24q-63 0 -115.5 -20t-90.5 -55t-59.5 -82.5t-21.5 -102.5t21.5 -101t59.5 -79.5t90.5 -52.5t115.5 -19q38 0 68.5 9t55.5 23.5t44 31.5t34 33l-25 22q-32 -34 -71 -57 t-93 -23q-33 0 -64.5 10t-55.5 34t-39 65t-15 104z" />
<glyph unicode="d" horiz-adv-x="608" d="M555 0v748h-125v-258h-106q-75 0 -131 -21t-93.5 -55.5t-56 -78.5t-18.5 -90t18.5 -90t56 -78.5t93.5 -55.5t131 -21h231zM430 460v-430h-91q-50 0 -85 18t-57.5 47.5t-33 68.5t-10.5 81q0 44 10.5 83t32.5 68.5t57 46.5t84 17h93z" />
<glyph unicode="e" horiz-adv-x="420" d="M381 460v30h-253q-37 0 -56 -23t-19 -55v-337q0 -42 22.5 -58.5t51.5 -16.5h254v30h-142q-32 0 -46.5 14t-14.5 36v162h161v30h-161v144q0 22 11 33t38 11h154z" />
<glyph unicode="f" horiz-adv-x="315" d="M272 724v30h-88q-34 0 -59.5 -10t-43 -27.5t-26 -41t-8.5 -50.5v-625h125v459h108v30h-108v181q0 29 14.5 41.5t40.5 12.5h45z" />
<glyph unicode="g" horiz-adv-x="605" d="M311 -14q38 0 68.5 9t55.5 23v-206h125v420h-125v-173q-23 -16 -50.5 -25t-60.5 -9t-64.5 10t-55.5 34t-39 65t-15 104t15 106t39 69.5t55.5 38t64.5 11.5q48 0 82 -17.5t63 -51.5l24 22q-29 34 -73 58t-109 24q-63 0 -115.5 -20t-90.5 -55t-59.5 -82.5t-21.5 -102.5 t21.5 -101t59.5 -79.5t90.5 -52.5t115.5 -19z" />
<glyph unicode="h" horiz-adv-x="550" d="M166 300v450h-125v-750h125v270h219v-270h125v490h-125v-190h-219z" />
<glyph unicode="i" horiz-adv-x="209" d="M169 490h-125v-490h125v490zM170 666q0 26 -19 45t-45 19t-45 -19t-19 -45t19 -45t45 -19t45 19t19 45z" />
<glyph unicode="j" horiz-adv-x="378" d="M314 490h-125v-505q0 -75 -23 -105t-77 -30h-77v-30h104q97 0 147.5 43t50.5 122v505zM314 666q0 26 -19 45t-45 19t-45 -19t-19 -45t19 -45t45 -19t45 19t19 45z" />
<glyph unicode="k" horiz-adv-x="580" d="M173 295v455h-125v-750h125v256l24 20l201 -276h156l-262 359l151 131h-46z" />
<glyph unicode="l" horiz-adv-x="325" d="M50 106q0 -60 30.5 -83t85.5 -23h124v35h-52q-32 0 -47.5 14t-15.5 50v651h-125v-644z" />
<glyph unicode="m" horiz-adv-x="730" d="M521 434l-147 -291l-115 273q-21 50 -52 67t-68 17q-34 0 -61 -22.5t-27 -65.5v-412h30v348q0 15 6.5 26t23.5 11q15 0 22.5 -9t13.5 -23l140 -331q5 -12 11 -19.5t17 -7.5q13 0 19.5 8.5t11.5 19.5l173 339q6 11 12.5 20t17.5 9q12 0 15 -7.5t3 -21.5v-362h125v425 q0 34 -22 54.5t-60 20.5q-34 0 -54.5 -19t-34.5 -47z" />
<glyph unicode="n" horiz-adv-x="525" d="M51 429v-429h30v351q0 12 5 19.5t15 7.5t15.5 -5.5t13.5 -16.5l271 -333q11 -13 20 -19t25 -6q18 0 26 9t8 23v460h-30v-275q0 -11 -5 -15t-13 -4t-13.5 5t-10.5 11l-192 237q-21 26 -43.5 37.5t-52.5 11.5t-49.5 -18t-19.5 -51z" />
<glyph unicode="o" horiz-adv-x="612" d="M589 245q0 49 -18 95.5t-53.5 83t-87.5 59t-121 22.5t-120.5 -22t-86.5 -58.5t-52.5 -83.5t-17.5 -96q0 -48 17 -94.5t51 -83t86 -59t123 -22.5t124 22t87.5 58.5t51.5 83t17 95.5zM151 245q0 42 9.5 82.5t29 72t49.5 51t70 19.5q39 0 69 -19.5t50.5 -51t30.5 -72 t10 -82.5t-9.5 -82t-29.5 -71.5t-50 -51t-71 -19.5q-39 0 -68.5 19t-49.5 50.5t-30 72t-10 82.5z" />
<glyph unicode="p" horiz-adv-x="608" d="M54 490v-690h125v200h106q75 0 131 21t93.5 55.5t56 78.5t18.5 90t-18.5 90t-56 78.5t-93.5 55.5t-131 21h-231zM179 30v430h97q47 0 81 -18.5t56 -48.5t32.5 -69t10.5 -79t-10.5 -78.5t-32 -69t-56 -49t-82.5 -18.5h-96z" />
<glyph unicode="q" horiz-adv-x="608" d="M239 101l32 -75q-30 9 -52.5 30.5t-37.5 51.5t-22.5 65.5t-7.5 71.5q0 42 9.5 82.5t29 72t49.5 51t70 19.5q39 0 69 -19.5t50.5 -51t30.5 -72t10 -82.5q0 -62 -20.5 -117.5t-64.5 -84.5l-25 58h-120zM32 245q0 -47 15.5 -91.5t47.5 -80.5t80 -59.5t113 -26.5l57 -131h120 l-61 142q47 13 81.5 38.5t57.5 58.5t34.5 71.5t11.5 78.5q0 49 -18 95.5t-53.5 83t-87.5 59t-121 22.5t-120.5 -22t-86.5 -58.5t-52.5 -83.5t-17.5 -96z" />
<glyph unicode="r" horiz-adv-x="520" d="M170 0v460h78q54 0 86.5 -28.5t32.5 -83.5q0 -51 -33.5 -75.5t-84.5 -24.5h-62l150 -248h146l-137 227q25 3 50 11t45.5 22t33.5 36t13 52q0 42 -17 69.5t-46.5 43.5t-68.5 22.5t-84 6.5h-227v-490h125z" />
<glyph unicode="s" horiz-adv-x="455" d="M389 455v35h-210q-26 0 -53 -7t-49 -23.5t-36 -43.5t-14 -66q0 -38 15 -65t40.5 -45t59 -28t71.5 -15q65 -8 92 -29.5t27 -59.5q0 -22 -9.5 -36t-25 -22.5t-35.5 -11.5t-41 -3h-178v-35h201q94 0 141 34t47 113q0 67 -48.5 109.5t-140.5 59.5q-65 12 -95 26t-30 46 q0 38 23.5 52.5t77.5 14.5h170z" />
<glyph unicode="t" horiz-adv-x="515" d="M480 490h-445v-30h160v-460h125v460h160v30z" />
<glyph unicode="u" horiz-adv-x="525" d="M170 174v316h-125v-304q0 -56 23 -93t58.5 -59.5t77.5 -31.5t80 -9q37 0 73.5 10.5t65.5 33t47.5 57.5t18.5 84v312h-30v-313q0 -39 -13.5 -66.5t-34.5 -44.5t-46.5 -25t-49.5 -8q-29 0 -55 7.5t-46 24.5t-32 43.5t-12 65.5z" />
<glyph unicode="v" horiz-adv-x="540" d="M160 490h-137l185 -444q12 -28 28 -41.5t44 -13.5t42.5 13t25.5 40l180 446h-32l-136 -338q-6 -14 -13.5 -22.5t-18.5 -8.5q-10 0 -16 7t-11 20z" />
<glyph unicode="w" horiz-adv-x="840" d="M284 -9q27 0 46 10.5t29 36.5l73 201l82 -195q12 -29 29.5 -41t46.5 -12t46.5 11.5t28.5 40.5l163 447h-33l-128 -355q-8 -22 -26 -22q-10 0 -17.5 4.5t-12.5 16.5l-147 356h-136l87 -210l-52 -144q-5 -14 -12 -19.5t-18 -5.5q-10 0 -17 5t-13 20l-147 354h-136l188 -449 q11 -26 28.5 -38t47.5 -12z" />
<glyph unicode="x" horiz-adv-x="516" d="M167 490h-153l193 -278l-177 -212h40l155 186l128 -186h150l-190 276l179 214h-36l-159 -190z" />
<glyph unicode="y" horiz-adv-x="595" d="M162 490h-141l256 -486l-103 -192h34l363 678h-36l-188 -356z" />
<glyph unicode="z" horiz-adv-x="465" d="M49 490v-30h153q33 0 46 -11.5t13 -26.5q0 -12 -6 -22l-226 -400h407v30h-177q-23 0 -33.5 10t-10.5 24t10 32l174 304q15 25 15 46q0 20 -15 32t-47 12h-303z" />
<glyph unicode="{" horiz-adv-x="240" d="M146 426v212q0 18 2 35t9.5 29.5t21.5 20t37 7.5v28q-41 0 -67.5 -9.5t-41.5 -25.5t-21 -38t-6 -47v-212q0 -30 -14.5 -52t-29.5 -36q18 -17 31 -39t13 -49v-227q0 -25 5.5 -46.5t20.5 -37t41.5 -24t68.5 -7.5v32q-24 0 -38 5.5t-21 16t-9 26t-2 35.5v227q0 14 -5.5 27 t-13.5 24.5t-17.5 20.5t-18.5 16q9 6 18.5 14t17.5 18.5t13.5 24.5t5.5 31z" />
<glyph unicode="|" horiz-adv-x="169" d="M113 700h-47v-700h47v700z" />
<glyph unicode="}" horiz-adv-x="240" d="M43 730q23 0 37 -7.5t21.5 -20t9.5 -29.5t2 -35v-212q0 -17 5.5 -31t13.5 -24.5t17.5 -18.5t18.5 -14q-9 -7 -18.5 -16t-17.5 -20.5t-13.5 -24.5t-5.5 -27v-227q0 -20 -2 -35.5t-9 -26t-21 -16t-38 -5.5v-32q42 -1 68.5 7.5t41.5 24t20.5 37t5.5 46.5v227q0 27 13 49 t31 39q-15 14 -29.5 36t-14.5 52v212q0 25 -6 47t-21 38t-41.5 25.5t-67.5 9.5v-28z" />
<glyph unicode="~" horiz-adv-x="502" d="M47 381l34 -33q14 13 34.5 26.5t56.5 13.5q26 0 42 -7.5t30 -17.5q17 -11 36.5 -21.5t50.5 -10.5q44 0 72 17t49 39l-28 33q-16 -16 -36.5 -28.5t-48.5 -12.5q-27 0 -45 9t-35 20q-17 10 -35.5 18.5t-44.5 8.5q-25 0 -44.5 -5t-35.5 -12.5t-28.5 -17.5t-23.5 -19z" />
<glyph unicode="&#xa1;" horiz-adv-x="230" d="M112 -87q20 0 37 13.5t17 45.5q0 46 -6 106.5t-14.5 126t-16 131t-10.5 120.5q-2 17 -10 17q-9 0 -10 -17q-3 -55 -9.5 -120.5t-13.5 -131t-12.5 -126t-5.5 -106.5q0 -32 17 -45.5t37 -13.5zM60 572q0 -20 13.5 -33.5t33.5 -13.5t33.5 13.5t13.5 33.5t-13.5 33.5 t-33.5 13.5t-33.5 -13.5t-13.5 -33.5z" />
<glyph unicode="&#xa2;" horiz-adv-x="600" d="M364 141q-17 0 -33.5 2.5t-31.5 7.5l86 427q40 -4 69 -21t55 -47l24 22q-24 29 -58.5 50.5t-83.5 28.5l22 109h-40l-22 -106q-63 0 -115.5 -20t-90.5 -55t-59.5 -82.5t-21.5 -102.5q0 -87 51 -150t137 -88l-27 -136h40l25 127q14 -2 29.5 -3.5t31.5 -1.5q38 0 68.5 9 t55.5 23.5t44 31.5t34 33l-25 22q-32 -34 -71 -57t-93 -23zM345 578l-82 -409q-32 23 -52.5 66.5t-20.5 118.5q0 58 13 99t34.5 68t49.5 40.5t58 16.5z" />
<glyph unicode="&#xa3;" horiz-adv-x="745" d="M472 705q-59 0 -103 -11.5t-76 -32.5t-52.5 -50.5t-31.5 -65.5l-54 -175h-106v-20h100l-9 -31h-91v-20h85l-91 -299h552v30h-411l82 270h159v20h-153l9 30h144v20h-138l63 205q14 45 45.5 70.5t82.5 25.5q69 0 107 -37t52 -99h40q-6 29 -18 59.5t-35 55t-60 40t-92 15.5z " />
<glyph unicode="&#xa5;" horiz-adv-x="729" d="M220 699h-150l223 -344h-155v-20h155v-30h-155v-20h155v-285h138v285h155v20h-155v30h155v20h-155l236 345h-48l-207 -299z" />
<glyph unicode="&#xa6;" horiz-adv-x="133" d="M89 327h-35v-327h35v327zM54 436h35v319h-35v-319z" />
<glyph unicode="&#xa7;" horiz-adv-x="528" d="M104 621q0 -44 17.5 -71t40.5 -44q-61 0 -98.5 -42t-37.5 -115q0 -45 13.5 -74t36.5 -48t53.5 -30t64.5 -20q41 -11 69.5 -22t46 -25.5t25 -32t7.5 -40.5q0 -51 -25 -73.5t-72 -22.5h-144v-43h176q28 0 57 7.5t51.5 25t37 45t14.5 68.5q0 49 -16.5 80.5t-44.5 42.5 q22 1 44.5 11.5t40 31.5t28.5 52t11 74q0 74 -42 118t-120 62q-42 10 -69.5 20t-43.5 22t-22.5 28t-6.5 37q0 39 20 64.5t59 25.5h145v38h-180q-61 0 -98.5 -41t-37.5 -109zM187 455h49q40 -11 72.5 -20t55 -22t34.5 -32t12 -49q0 -52 -23 -73t-65 -21q-33 12 -69 20 t-66.5 20t-50.5 32.5t-20 57.5q0 41 19 64t52 23z" />
<glyph unicode="&#xa8;" horiz-adv-x="326" d="M130 664q0 23 -15.5 38.5t-38.5 15.5t-38.5 -15.5t-15.5 -38.5t15.5 -38.5t38.5 -15.5t38.5 15.5t15.5 38.5zM302 664q0 23 -15.5 38.5t-38.5 15.5t-38.5 -15.5t-15.5 -38.5t15.5 -38.5t38.5 -15.5t38.5 15.5t15.5 38.5z" />
<glyph unicode="&#xa9;" horiz-adv-x="655" d="M234 394q0 19 5 37t16 32t28 22.5t40 8.5q32 0 55.5 -11t39.5 -23v24q-15 10 -37 20t-58 10q-33 0 -57 -10.5t-40.5 -27t-24.5 -38.5t-8 -44q0 -23 8 -44.5t24.5 -38.5t41 -27.5t56.5 -10.5q38 0 60.5 12t34.5 23v24q-17 -17 -38.5 -28t-56.5 -11q-23 0 -40 8.5t-28 23 t-16 32.5t-5 37zM586 389q0 54 -20.5 102t-56.5 84t-84 56.5t-102 20.5t-102 -20.5t-84 -56.5t-56.5 -84t-20.5 -102t20.5 -102t56.5 -84t84 -56.5t102 -20.5t102 20.5t84 56.5t56.5 84t20.5 102zM81 390q0 50 19 94.5t52 77.5t77.5 52t94.5 19t94.5 -19t77.5 -52t52 -77.5 t19 -94.5t-19 -94.5t-52 -77.5t-77.5 -52t-94.5 -19t-94.5 19t-77.5 52t-52 77.5t-19 94.5z" />
<glyph unicode="&#xaa;" horiz-adv-x="400" d="M388 243h-364v-30h364v30zM150 611l-110 -322h29l28 81h165l27 -81h76l-115 322q-11 35 -51 35q-20 0 -31.5 -9t-17.5 -26zM199 547l53 -149h-145l51 149q3 8 7.5 15t13.5 7t13.5 -7t6.5 -15z" />
<glyph unicode="&#xab;" horiz-adv-x="628" d="M270 435l-223 -185l223 -180h68l-162 180l162 185h-68zM515 435l-223 -185l223 -180h68l-162 180l162 185h-68z" />
<glyph unicode="&#xac;" horiz-adv-x="330" d="M309 380h-291v-30h291v30zM199 728l-115 -13l2 -16l52 7v-292h61v314zM266 244q0 34 -26 55t-71 21t-73 -21.5t-28 -56.5q0 -26 19.5 -41.5t42.5 -17.5q-16 -2 -31 -9.5t-27 -20t-19.5 -29t-7.5 -35.5q0 -45 34 -69.5t84 -24.5q59 0 91.5 26.5t32.5 70.5q0 22 -7.5 38.5 t-19.5 27.5t-26 17t-27 8q8 1 18.5 6t19.5 13t15 19t6 23zM208 248q0 -22 -9 -40.5t-31 -18.5q-20 0 -31 18.5t-11 40.5q0 23 10.5 41t32.5 18q18 0 28.5 -18t10.5 -41zM112 91q0 31 14.5 56.5t43.5 25.5q26 0 39.5 -25.5t13.5 -56.5t-14 -56t-43 -25q-28 0 -41 25t-13 56z " />
<glyph unicode="&#xae;" horiz-adv-x="400" d="M265 585q0 21 -14 35t-37 14h-70v-182h14v84h31l58 -84h18l-59 84h8q23 0 37 12t14 37zM251 585q0 -35 -36 -35h-57v70h57q18 0 27 -10.5t9 -24.5zM357 539q0 33 -12.5 61.5t-34 50t-50 34t-61.5 12.5t-61.5 -12.5t-50 -34t-34 -50t-12.5 -61.5t12.5 -61.5t34 -50t50 -34 t61.5 -12.5t61.5 12.5t50 34t34 50t12.5 61.5zM56 539q0 30 11 56t30.5 45.5t45.5 30.5t56 11t56 -11t45.5 -30.5t30.5 -45.5t11 -56t-11 -56t-30.5 -45.5t-45.5 -30.5t-56 -11t-56 11t-45.5 30.5t-30.5 45.5t-11 56z" />
<glyph unicode="&#xaf;" horiz-adv-x="332" d="M319 678h-291v-30h291v30z" />
<glyph unicode="&#xb0;" horiz-adv-x="281" d="M218 603q0 34 -23.5 57.5t-57.5 23.5t-57.5 -23.5t-23.5 -57.5t23.5 -57.5t57.5 -23.5t57.5 23.5t23.5 57.5zM76 603q0 26 17.5 43.5t43.5 17.5t43.5 -17.5t17.5 -43.5t-17.5 -43.5t-43.5 -17.5t-43.5 17.5t-17.5 43.5z" />
<glyph unicode="&#xb2;" d="M74 657h21q3 18 24 36.5t57 18.5t52 -14t16 -44q0 -25 -12 -42t-29 -36l-144 -162h231v18h-155l107 121q20 24 34.5 46.5t14.5 54.5q0 35 -27 55.5t-81 20.5q-28 0 -47.5 -7.5t-32.5 -18.5t-20 -24t-9 -23z" />
<glyph unicode="&#xb3;" d="M91 727v-12h124l-111 -110h101q17 0 25.5 -9.5t8.5 -21.5q0 -15 -10 -25l-138 -136h67l128 129q12 12 12 31q0 17 -13 32.5t-41 15.5h-67l108 106h-194z" />
<glyph unicode="&#xb4;" horiz-adv-x="225" d="M182 672q7 4 11.5 10t4.5 17t-7.5 18.5t-19.5 7.5q-13 0 -24 -12q-8 -9 -20.5 -24t-26.5 -32l-28 -34t-24 -30q14 8 32.5 18.5t37 21.5t36 21.5t28.5 17.5z" />
<glyph unicode="&#xb5;" d="M350 378h-308v-30h308v30zM72 242h21q3 18 24 36.5t57 18.5t52 -14t16 -44q0 -25 -12 -42t-29 -36l-144 -162h231v18h-155l107 121q20 24 34.5 46.5t14.5 54.5q0 35 -27 55.5t-81 20.5q-28 0 -47.5 -7.5t-32.5 -18.5t-20 -24t-9 -23zM219 728l-115 -13l2 -16l52 7v-292 h61v314z" />
<glyph unicode="&#xb6;" horiz-adv-x="640" d="M400 -75v775h-169q-96 0 -143.5 -39t-47.5 -106q0 -69 47 -107t144 -38h34v-485h135zM461 -75h135v775h-135v-775z" />
<glyph unicode="&#xb7;" horiz-adv-x="285" d="M180 386q0 19 -13.5 32.5t-32.5 13.5t-32.5 -13.5t-13.5 -32.5t13.5 -32.5t32.5 -13.5t32.5 13.5t13.5 32.5z" />
<glyph unicode="&#xb8;" horiz-adv-x="192" d="M108 0h-40v-47q47 -8 47 -42q0 -18 -11.5 -27t-28.5 -9q-16 0 -34 8l-14 -22q17 -10 33.5 -14t33.5 -4q32 0 54.5 16t22.5 47q0 18 -6 29.5t-15.5 18.5t-20.5 10t-21 5v31z" />
<glyph unicode="&#xb9;" horiz-adv-x="260" d="M179 728l-115 -13l2 -16l52 7v-292h61v314z" />
<glyph unicode="&#xba;" horiz-adv-x="470" d="M448 240h-426v-30h426v30zM429 463q0 34 -12.5 67t-37 58.5t-61 41t-84.5 15.5t-84.5 -15.5t-60.5 -41t-36.5 -58.5t-12.5 -67t12 -66.5t36 -58t60.5 -41t85.5 -15.5t86 15.5t61 41t36 58t12 66.5zM123 463q0 30 7 58t20.5 50.5t34.5 36t49 13.5q27 0 48 -13.5t35.5 -36 t21.5 -50.5t7 -58q0 -29 -7 -57t-20.5 -50t-35 -35.5t-49.5 -13.5q-27 0 -48 13.5t-35 35.5t-21 50t-7 57z" />
<glyph unicode="&#xbb;" horiz-adv-x="628" d="M59 70h68l223 180l-223 185h-68l162 -185zM307 70h68l223 180l-223 185h-68l162 -185z" />
<glyph unicode="&#xbc;" d="M354 380h-306v-30h306v30zM274 315h-59l-161 -210h160v-104h60v104h38v18h-38v192zM219 728l-115 -13l2 -16l52 7v-292h61v314zM214 123h-118l118 161v-161z" />
<glyph unicode="&#xbd;" d="M350 378h-308v-30h308v30zM72 242h21q3 18 24 36.5t57 18.5t52 -14t16 -44q0 -25 -12 -42t-29 -36l-144 -162h231v18h-155l107 121q20 24 34.5 46.5t14.5 54.5q0 35 -27 55.5t-81 20.5q-28 0 -47.5 -7.5t-32.5 -18.5t-20 -24t-9 -23zM219 728l-115 -13l2 -16l52 7v-292 h61v314z" />
<glyph unicode="&#xbe;" d="M345 380h-307v-30h307v30zM91 727v-12h124l-111 -110h101q17 0 25.5 -9.5t8.5 -21.5q0 -15 -10 -25l-138 -136h67l128 129q12 12 12 31q0 17 -13 32.5t-41 15.5h-67l108 106h-194zM274 313h-59l-161 -210h160v-104h60v104h38v18h-38v192zM214 121h-118l118 161v-161z" />
<glyph unicode="&#xbf;" horiz-adv-x="551" d="M186 48q0 37 18 64.5t43.5 47.5t54.5 35t52 28q17 10 24.5 24t7.5 39q0 21 -4.5 45.5t-10.5 48t-12.5 44.5t-10.5 36q-5 17 -14 17q-10 0 -10 -17q0 -48 -1 -82t-4.5 -57t-10.5 -36t-19 -19q-11 -6 -32.5 -15t-47.5 -22t-53 -29t-49 -36.5t-36 -44.5t-14 -53 q0 -42 17 -74t48.5 -53.5t76 -32t98.5 -10.5q48 0 83 12t58.5 31t35 43t11.5 47h-38q0 -18 -9 -35.5t-28 -32t-47 -23t-66 -8.5q-30 0 -51.5 10.5t-34.5 27t-19 38t-6 42.5zM289 563q0 -19 13.5 -32.5t32.5 -13.5t32.5 13.5t13.5 32.5t-13.5 32.5t-32.5 13.5t-32.5 -13.5 t-13.5 -32.5z" />
<glyph unicode="&#xc0;" horiz-adv-x="765" d="M314 860q-11 0 -18 -6.5t-7 -16.5q0 -11 4.5 -16t10.5 -8q10 -6 25.5 -15.5t32.5 -19.5t33.5 -19.5t29.5 -16.5l-22.5 27l-25 30t-24 28.5t-18.5 22.5q-9 10 -21 10zM385 730l-365 -730h50l107 208h335l103 -208h135zM340 539l151 -292h-295z" />
<glyph unicode="&#xc1;" horiz-adv-x="765" d="M480 819q6 3 10.5 8t4.5 16q0 10 -7 16.5t-18 6.5q-12 0 -21 -10q-8 -9 -19 -22.5t-23.5 -28.5l-25 -30l-22.5 -27q13 7 29.5 16.5t33.5 19.5t32.5 19.5t25.5 15.5zM385 730l-365 -730h50l107 208h335l103 -208h135zM340 539l151 -292h-295z" />
<glyph unicode="&#xc2;" horiz-adv-x="765" d="M365 847l-103 -103h31l90 65l89 -65h32l-103 103h-36zM385 730l-365 -730h50l107 208h335l103 -208h135zM340 539l151 -292h-295z" />
<glyph unicode="&#xc3;" horiz-adv-x="765" d="M213 804l28 -27q11 11 28 22t46 11q20 0 33 -6t25 -14q14 -10 29.5 -18t41.5 -8q35 0 58 14t40 32l-23 26q-13 -13 -29.5 -23.5t-39.5 -10.5q-22 0 -36.5 8t-28.5 16t-29 15t-36 7q-40 0 -64.5 -14t-42.5 -30zM385 730l-365 -730h50l107 208h335l103 -208h135zM340 539 l151 -292h-295z" />
<glyph unicode="&#xc4;" horiz-adv-x="765" d="M345 802q0 20 -14 34.5t-34 14.5t-34.5 -14.5t-14.5 -34.5t14.5 -34.5t34.5 -14.5t34 14.5t14 34.5zM510 802q0 20 -14.5 34.5t-34.5 14.5t-34 -14.5t-14 -34.5t14 -34.5t34 -14.5t34.5 14.5t14.5 34.5zM385 730l-365 -730h50l107 208h335l103 -208h135zM340 539 l151 -292h-295z" />
<glyph unicode="&#xc5;" horiz-adv-x="765" d="M317 810q0 -24 16.5 -44t50.5 -20t51 20t17 44t-17 44t-51 20t-50.5 -20t-16.5 -44zM333 810q0 18 12.5 33t38.5 15t39.5 -15t13.5 -33t-13 -33t-40 -15q-26 0 -38.5 15t-12.5 33zM385 730l-365 -730h50l107 208h335l103 -208h135zM340 539l151 -292h-295z" />
<glyph unicode="&#xc6;" horiz-adv-x="785" d="M747 700h-387l-345 -700h50l169 343h141v-343h372v40h-236v308h236v40h-236v272h236v40zM254 378l121 257v-257h-121z" />
<glyph unicode="&#xc7;" horiz-adv-x="710" d="M29 350q0 -65 23 -128t69 -112.5t115 -81.5t162 -36v-55q52 -8 52 -46q0 -20 -13 -30t-32 -10t-38 9l-15 -25q18 -11 37 -15.5t37 -4.5q35 0 60.5 18t25.5 52q0 20 -7 33t-17.5 20.5t-22.5 11t-23 5.5v37q46 2 82.5 11.5t66 24t53.5 33t46 38.5l-31 25 q-18 -16 -38.5 -32.5t-48 -29.5t-64 -21.5t-85.5 -8.5q-61 0 -106.5 25.5t-76 69t-46 101t-15.5 122.5q0 64 15 121.5t45.5 101t76.5 69.5t107 26q42 0 75 -7.5t60 -19.5t48.5 -28t40.5 -33l31 25q-18 18 -41 36t-53.5 33t-70.5 24.5t-92 9.5q-98 0 -171.5 -31t-122.5 -81 t-73.5 -114.5t-24.5 -131.5z" />
<glyph unicode="&#xc8;" horiz-adv-x="545" d="M234 848q-11 0 -18 -6.5t-7 -16.5q0 -11 4.5 -16t10.5 -8q10 -6 25.5 -15.5t32.5 -19.5t33.5 -19.5t29.5 -16.5l-22.5 27l-25 30t-24 28.5t-18.5 22.5q-9 10 -21 10zM505 660v40h-455v-700h455v40h-320v308h300v40h-300v272h320z" />
<glyph unicode="&#xc9;" horiz-adv-x="545" d="M378 801q6 3 10.5 8t4.5 16q0 10 -7 16.5t-18 6.5q-12 0 -21 -10q-8 -9 -19 -22.5t-23.5 -28.5l-25 -30l-22.5 -27q13 7 29.5 16.5t33.5 19.5t32.5 19.5t25.5 15.5zM505 660v40h-455v-700h455v40h-320v308h300v40h-300v272h320z" />
<glyph unicode="&#xca;" horiz-adv-x="545" d="M267 847l-103 -103h31l90 65l89 -65h32l-103 103h-36zM505 660v40h-455v-700h455v40h-320v308h300v40h-300v272h320z" />
<glyph unicode="&#xcb;" horiz-adv-x="545" d="M249 802q0 20 -14 34.5t-34 14.5t-34.5 -14.5t-14.5 -34.5t14.5 -34.5t34.5 -14.5t34 14.5t14 34.5zM414 802q0 20 -14.5 34.5t-34.5 14.5t-34 -14.5t-14 -34.5t14 -34.5t34 -14.5t34.5 14.5t14.5 34.5zM505 660v40h-455v-700h455v40h-320v308h300v40h-300v272h320z" />
<glyph unicode="&#xcc;" horiz-adv-x="263" d="M52 848q-11 0 -18 -6.5t-7 -16.5q0 -11 4.5 -16t10.5 -8q10 -6 25.5 -15.5t32.5 -19.5t33.5 -19.5t29.5 -16.5l-22.5 27l-25 30t-24 28.5t-18.5 22.5q-9 10 -21 10zM68 0h134v700h-134v-700z" />
<glyph unicode="&#xcd;" horiz-adv-x="263" d="M244 801q6 3 10.5 8t4.5 16q0 10 -7 16.5t-18 6.5q-12 0 -21 -10q-8 -9 -19 -22.5t-23.5 -28.5l-25 -30l-22.5 -27q13 7 29.5 16.5t33.5 19.5t32.5 19.5t25.5 15.5zM68 0h134v700h-134v-700z" />
<glyph unicode="&#xce;" horiz-adv-x="263" d="M113 847l-103 -103h31l90 65l89 -65h32l-103 103h-36zM68 0h134v700h-134v-700z" />
<glyph unicode="&#xcf;" horiz-adv-x="263" d="M99 802q0 20 -14 34.5t-34 14.5t-34.5 -14.5t-14.5 -34.5t14.5 -34.5t34.5 -14.5t34 14.5t14 34.5zM264 802q0 20 -14.5 34.5t-34.5 14.5t-34 -14.5t-14 -34.5t14 -34.5t34 -14.5t34.5 14.5t14.5 34.5zM68 0h134v700h-134v-700z" />
<glyph unicode="&#xd0;" horiz-adv-x="700" d="M185 380v290h100q65 0 111.5 -27.5t76 -72.5t43.5 -102.5t14 -117.5t-16 -117.5t-47 -102.5t-77 -72.5t-106 -27.5h-99v309h127v41h-127zM50 339v-339h242q94 0 165.5 30t119 79.5t71.5 112t24 128.5t-23.5 128.5t-71 112t-119 79.5t-167.5 30h-241v-320h-48v-41h48z" />
<glyph unicode="&#xd1;" horiz-adv-x="705" d="M191 804l28 -27q11 11 28 22t46 11q20 0 33 -6t25 -14q14 -10 29.5 -18t41.5 -8q35 0 58 14t40 32l-23 26q-13 -13 -29.5 -23.5t-39.5 -10.5q-22 0 -36.5 8t-28.5 16t-29 15t-36 7q-40 0 -64.5 -14t-42.5 -30zM50 700v-700h42v544l524 -544h42v700h-42v-506l-489 506h-77 z" />
<glyph unicode="&#xd2;" horiz-adv-x="790" d="M330 848q-11 0 -18 -6.5t-7 -16.5q0 -11 4.5 -16t10.5 -8q10 -6 25.5 -15.5t32.5 -19.5t33.5 -19.5t29.5 -16.5l-22.5 27l-25 30t-24 28.5t-18.5 22.5q-9 10 -21 10zM770 347q0 68 -23.5 133t-70.5 116t-117 82.5t-164 31.5q-93 0 -163 -31t-117 -82t-70.5 -116.5 t-23.5 -133.5t23.5 -133t70 -116t116.5 -82t164 -31t164 31t117 82t70.5 116t23.5 133zM162 347q0 60 14.5 118t44 103.5t73 73.5t101.5 28t101.5 -27.5t72.5 -73t43.5 -103.5t14.5 -119q0 -60 -14.5 -118t-43.5 -103t-72.5 -73t-101.5 -28t-101.5 27.5t-73 73t-44 103.5 t-14.5 118z" />
<glyph unicode="&#xd3;" horiz-adv-x="790" d="M468 801q6 3 10.5 8t4.5 16q0 10 -7 16.5t-18 6.5q-12 0 -21 -10q-8 -9 -19 -22.5t-23.5 -28.5l-25 -30l-22.5 -27q13 7 29.5 16.5t33.5 19.5t32.5 19.5t25.5 15.5zM770 347q0 68 -23.5 133t-70.5 116t-117 82.5t-164 31.5q-93 0 -163 -31t-117 -82t-70.5 -116.5 t-23.5 -133.5t23.5 -133t70 -116t116.5 -82t164 -31t164 31t117 82t70.5 116t23.5 133zM162 347q0 60 14.5 118t44 103.5t73 73.5t101.5 28t101.5 -27.5t72.5 -73t43.5 -103.5t14.5 -119q0 -60 -14.5 -118t-43.5 -103t-72.5 -73t-101.5 -28t-101.5 27.5t-73 73t-44 103.5 t-14.5 118z" />
<glyph unicode="&#xd4;" horiz-adv-x="790" d="M379 847l-103 -103h31l90 65l89 -65h32l-103 103h-36zM770 347q0 68 -23.5 133t-70.5 116t-117 82.5t-164 31.5q-93 0 -163 -31t-117 -82t-70.5 -116.5t-23.5 -133.5t23.5 -133t70 -116t116.5 -82t164 -31t164 31t117 82t70.5 116t23.5 133zM162 347q0 60 14.5 118 t44 103.5t73 73.5t101.5 28t101.5 -27.5t72.5 -73t43.5 -103.5t14.5 -119q0 -60 -14.5 -118t-43.5 -103t-72.5 -73t-101.5 -28t-101.5 27.5t-73 73t-44 103.5t-14.5 118z" />
<glyph unicode="&#xd5;" horiz-adv-x="790" d="M231 804l28 -27q11 11 28 22t46 11q20 0 33 -6t25 -14q14 -10 29.5 -18t41.5 -8q35 0 58 14t40 32l-23 26q-13 -13 -29.5 -23.5t-39.5 -10.5q-22 0 -36.5 8t-28.5 16t-29 15t-36 7q-40 0 -64.5 -14t-42.5 -30zM770 347q0 68 -23.5 133t-70.5 116t-117 82.5t-164 31.5 q-93 0 -163 -31t-117 -82t-70.5 -116.5t-23.5 -133.5t23.5 -133t70 -116t116.5 -82t164 -31t164 31t117 82t70.5 116t23.5 133zM162 347q0 60 14.5 118t44 103.5t73 73.5t101.5 28t101.5 -27.5t72.5 -73t43.5 -103.5t14.5 -119q0 -60 -14.5 -118t-43.5 -103t-72.5 -73 t-101.5 -28t-101.5 27.5t-73 73t-44 103.5t-14.5 118z" />
<glyph unicode="&#xd6;" horiz-adv-x="790" d="M361 802q0 20 -14 34.5t-34 14.5t-34.5 -14.5t-14.5 -34.5t14.5 -34.5t34.5 -14.5t34 14.5t14 34.5zM526 802q0 20 -14.5 34.5t-34.5 14.5t-34 -14.5t-14 -34.5t14 -34.5t34 -14.5t34.5 14.5t14.5 34.5zM770 347q0 68 -23.5 133t-70.5 116t-117 82.5t-164 31.5 q-93 0 -163 -31t-117 -82t-70.5 -116.5t-23.5 -133.5t23.5 -133t70 -116t116.5 -82t164 -31t164 31t117 82t70.5 116t23.5 133zM162 347q0 60 14.5 118t44 103.5t73 73.5t101.5 28t101.5 -27.5t72.5 -73t43.5 -103.5t14.5 -119q0 -60 -14.5 -118t-43.5 -103t-72.5 -73 t-101.5 -28t-101.5 27.5t-73 73t-44 103.5t-14.5 118z" />
<glyph unicode="&#xd7;" horiz-adv-x="361" d="M67 413l-33 -22l123 -183l-125 -185l33 -23l117 173l117 -173l34 21l-126 188l123 183l-34 21l-114 -171z" />
<glyph unicode="&#xd8;" horiz-adv-x="788" d="M103 1l53 59q45 -35 104.5 -55t134.5 -20q94 0 164 31t117 82t70.5 116t23.5 133q0 76 -28.5 147t-85.5 122l41 45l-29 27l-42 -47q-45 32 -102.5 50.5t-128.5 18.5q-93 0 -163 -31t-117 -82t-70.5 -116.5t-23.5 -133.5q0 -72 26 -140t78 -120l-52 -58zM395 25 q-60 0 -104 28t-73 76l368 409q21 -42 31 -91t10 -100q0 -60 -14.5 -118t-43.5 -103t-72.5 -73t-101.5 -28zM566 575l-368 -408q-18 41 -27 86.5t-9 93.5q0 60 14.5 118t44 103.5t73 73.5t101.5 28q57 0 99.5 -26t71.5 -69z" />
<glyph unicode="&#xd9;" horiz-adv-x="608" d="M266 848q-11 0 -18 -6.5t-7 -16.5q0 -11 4.5 -16t10.5 -8q10 -6 25.5 -15.5t32.5 -19.5t33.5 -19.5t29.5 -16.5l-22.5 27l-25 30t-24 28.5t-18.5 22.5q-9 10 -21 10zM185 188v512h-135v-487q0 -59 23 -100.5t61.5 -68t88.5 -39t103 -12.5q52 0 95.5 11.5t75 36.5t49 63 t17.5 91v505h-41v-513q0 -40 -14.5 -69t-37.5 -48t-52.5 -28t-60.5 -9q-38 0 -69.5 9.5t-54 28.5t-35.5 48.5t-13 68.5z" />
<glyph unicode="&#xda;" horiz-adv-x="608" d="M404 801q6 3 10.5 8t4.5 16q0 10 -7 16.5t-18 6.5q-12 0 -21 -10q-8 -9 -19 -22.5t-23.5 -28.5l-25 -30l-22.5 -27q13 7 29.5 16.5t33.5 19.5t32.5 19.5t25.5 15.5zM185 188v512h-135v-487q0 -59 23 -100.5t61.5 -68t88.5 -39t103 -12.5q52 0 95.5 11.5t75 36.5t49 63 t17.5 91v505h-41v-513q0 -40 -14.5 -69t-37.5 -48t-52.5 -28t-60.5 -9q-38 0 -69.5 9.5t-54 28.5t-35.5 48.5t-13 68.5z" />
<glyph unicode="&#xdb;" horiz-adv-x="608" d="M303 847l-103 -103h31l90 65l89 -65h32l-103 103h-36zM185 188v512h-135v-487q0 -59 23 -100.5t61.5 -68t88.5 -39t103 -12.5q52 0 95.5 11.5t75 36.5t49 63t17.5 91v505h-41v-513q0 -40 -14.5 -69t-37.5 -48t-52.5 -28t-60.5 -9q-38 0 -69.5 9.5t-54 28.5t-35.5 48.5 t-13 68.5z" />
<glyph unicode="&#xdc;" horiz-adv-x="608" d="M285 802q0 20 -14 34.5t-34 14.5t-34.5 -14.5t-14.5 -34.5t14.5 -34.5t34.5 -14.5t34 14.5t14 34.5zM450 802q0 20 -14.5 34.5t-34.5 14.5t-34 -14.5t-14 -34.5t14 -34.5t34 -14.5t34.5 14.5t14.5 34.5zM185 188v512h-135v-487q0 -59 23 -100.5t61.5 -68t88.5 -39 t103 -12.5q52 0 95.5 11.5t75 36.5t49 63t17.5 91v505h-41v-513q0 -40 -14.5 -69t-37.5 -48t-52.5 -28t-60.5 -9q-38 0 -69.5 9.5t-54 28.5t-35.5 48.5t-13 68.5z" />
<glyph unicode="&#xdd;" horiz-adv-x="640" d="M175 700h-164l245 -352v-348h138v358l238 342h-49l-204 -291zM443 801q6 3 10.5 8t4.5 16q0 10 -7 16.5t-18 6.5q-12 0 -21 -10q-8 -9 -19 -22.5t-23.5 -28.5l-25 -30l-22.5 -27q13 7 29.5 16.5t33.5 19.5t32.5 19.5t25.5 15.5z" />
<glyph unicode="&#xde;" horiz-adv-x="652" d="M189 199h158q68 0 117.5 16t82 42t48 59t15.5 67t-15.5 67t-48 59t-82 42.5t-117.5 16.5h-158v132h-135v-700h135v199zM189 239v289h141q37 0 65 -11.5t47 -31.5t28.5 -46.5t9.5 -55.5t-9.5 -55.5t-28.5 -46t-47 -31t-65 -11.5h-141z" />
<glyph unicode="&#xdf;" horiz-adv-x="658" d="M91 460v-460h126v611q0 52 33 81.5t93 29.5q42 0 73 -10.5t50.5 -27t29 -38t9.5 -43.5q0 -44 -19.5 -68.5t-57.5 -44.5q-60 -31 -86.5 -62.5t-26.5 -70.5q0 -38 21 -60t56 -36q42 -17 67.5 -33.5t40 -33t19.5 -34t5 -36.5q0 -46 -23.5 -67t-69.5 -21h-127v-36h166 q33 0 62.5 7.5t52 25t36 45t13.5 67.5q0 27 -9.5 55t-28 53t-45 45.5t-59.5 32.5q-27 10 -45.5 18t-30 15.5t-16 16t-4.5 19.5q0 21 13.5 33.5t38.5 24.5q49 23 75 57.5t26 87.5q0 27 -12.5 54t-38 48.5t-64 35t-91.5 13.5q-49 0 -94.5 -10.5t-80.5 -30.5t-56 -51t-21 -71 v-101h-69v-30h69z" />
<glyph unicode="&#xe0;" horiz-adv-x="500" d="M157 725q-12 0 -19.5 -7.5t-7.5 -18.5t4.5 -17t11.5 -10q11 -7 28.5 -17.5t36 -21.5t37 -21.5t32.5 -18.5q-11 13 -24.5 30t-27.5 34t-26.5 32t-20.5 24q-11 12 -24 12zM178 460l-158 -460h41l41 116h235l40 -116h108l-164 460q-8 23 -26.5 36.5t-47.5 13.5 q-27 0 -44 -13.5t-25 -36.5zM248 369l75 -213h-207l73 212q4 12 10.5 22t19.5 10t19 -10t10 -21z" />
<glyph unicode="&#xe1;" horiz-adv-x="500" d="M344 672q7 4 11.5 10t4.5 17t-7.5 18.5t-19.5 7.5q-13 0 -24 -12q-8 -9 -20.5 -24t-26.5 -32l-28 -34t-24 -30q14 8 32.5 18.5t37 21.5t36 21.5t28.5 17.5zM178 460l-158 -460h41l41 116h235l40 -116h108l-164 460q-8 23 -26.5 36.5t-47.5 13.5q-27 0 -44 -13.5 t-25 -36.5zM248 369l75 -213h-207l73 212q4 12 10.5 22t19.5 10t19 -10t10 -21z" />
<glyph unicode="&#xe2;" horiz-adv-x="500" d="M229 724l-114 -115h34l100 72l100 -72h35l-114 115h-41zM178 460l-158 -460h41l41 116h235l40 -116h108l-164 460q-8 23 -26.5 36.5t-47.5 13.5q-27 0 -44 -13.5t-25 -36.5zM248 369l75 -213h-207l73 212q4 12 10.5 22t19.5 10t19 -10t10 -21z" />
<glyph unicode="&#xe3;" horiz-adv-x="500" d="M72 653l28 -27q11 11 28 22t46 11q20 0 33 -6t25 -14q14 -10 29.5 -18t41.5 -8q35 0 58 14t40 32l-23 26q-13 -13 -29.5 -23.5t-39.5 -10.5q-22 0 -36.5 8t-28.5 16t-29 15t-36 7q-40 0 -64.5 -14t-42.5 -30zM178 460l-158 -460h41l41 116h235l40 -116h108l-164 460 q-8 23 -26.5 36.5t-47.5 13.5q-27 0 -44 -13.5t-25 -36.5zM248 369l75 -213h-207l73 212q4 12 10.5 22t19.5 10t19 -10t10 -21z" />
<glyph unicode="&#xe4;" horiz-adv-x="500" d="M212 664q0 23 -15.5 38.5t-38.5 15.5t-38.5 -15.5t-15.5 -38.5t15.5 -38.5t38.5 -15.5t38.5 15.5t15.5 38.5zM384 664q0 23 -15.5 38.5t-38.5 15.5t-38.5 -15.5t-15.5 -38.5t15.5 -38.5t38.5 -15.5t38.5 15.5t15.5 38.5zM178 460l-158 -460h41l41 116h235l40 -116h108 l-164 460q-8 23 -26.5 36.5t-47.5 13.5q-27 0 -44 -13.5t-25 -36.5zM248 369l75 -213h-207l73 212q4 12 10.5 22t19.5 10t19 -10t10 -21z" />
<glyph unicode="&#xe5;" horiz-adv-x="500" d="M328 668q0 34 -23.5 57.5t-57.5 23.5t-57.5 -23.5t-23.5 -57.5t23.5 -57.5t57.5 -23.5t57.5 23.5t23.5 57.5zM186 668q0 26 17.5 43.5t43.5 17.5t43.5 -17.5t17.5 -43.5t-17.5 -43.5t-43.5 -17.5t-43.5 17.5t-17.5 43.5zM178 460l-158 -460h41l41 116h235l40 -116h108 l-164 460q-8 23 -26.5 36.5t-47.5 13.5q-27 0 -44 -13.5t-25 -36.5zM248 369l75 -213h-207l73 212q4 12 10.5 22t19.5 10t19 -10t10 -21z" />
<glyph unicode="&#xe6;" horiz-adv-x="700" d="M271 372q7 12 14.5 20t22.5 8q14 0 19 -9t5 -21v-214h-181zM661 490h-317q-29 0 -48 -12.5t-30 -32.5l-246 -445h45l64 116h203v-41q0 -38 21 -56.5t60 -18.5h248v35h-156q-28 0 -39.5 9.5t-11.5 32.5v160h165v35h-165v148q0 35 41 35h166v35z" />
<glyph unicode="&#xe7;" horiz-adv-x="540" d="M332 -44v31q33 3 60.5 12.5t50 23.5t39.5 29.5t31 30.5l-25 22q-32 -34 -71 -57t-93 -23q-33 0 -64.5 10t-55.5 34t-39 65t-15 104t15 106t39 69.5t55.5 38t64.5 11.5q48 0 82 -17.5t63 -51.5l24 22q-29 34 -73 58t-109 24q-63 0 -115.5 -20t-90.5 -55t-59.5 -82.5 t-21.5 -102.5q0 -53 20 -98t55.5 -78t84.5 -53t108 -23v-46q47 -8 47 -42q0 -18 -11.5 -27t-28.5 -9q-16 0 -34 8l-14 -22q17 -10 33.5 -14t33.5 -4q32 0 54.5 16t22.5 47q0 18 -6 29.5t-15.5 18.5t-20.5 10t-21 5z" />
<glyph unicode="&#xe8;" horiz-adv-x="420" d="M157 725q-12 0 -19.5 -7.5t-7.5 -18.5t4.5 -17t11.5 -10q11 -7 28.5 -17.5t36 -21.5t37 -21.5t32.5 -18.5q-11 13 -24.5 30t-27.5 34t-26.5 32t-20.5 24q-11 12 -24 12zM381 460v30h-253q-37 0 -56 -23t-19 -55v-337q0 -42 22.5 -58.5t51.5 -16.5h254v30h-142 q-32 0 -46.5 14t-14.5 36v162h161v30h-161v144q0 22 11 33t38 11h154z" />
<glyph unicode="&#xe9;" horiz-adv-x="420" d="M322 672q7 4 11.5 10t4.5 17t-7.5 18.5t-19.5 7.5q-13 0 -24 -12q-8 -9 -20.5 -24t-26.5 -32l-28 -34t-24 -30q14 8 32.5 18.5t37 21.5t36 21.5t28.5 17.5zM381 460v30h-253q-37 0 -56 -23t-19 -55v-337q0 -42 22.5 -58.5t51.5 -16.5h254v30h-142q-32 0 -46.5 14 t-14.5 36v162h161v30h-161v144q0 22 11 33t38 11h154z" />
<glyph unicode="&#xea;" horiz-adv-x="420" d="M203 724l-114 -115h34l100 72l100 -72h35l-114 115h-41zM381 460v30h-253q-37 0 -56 -23t-19 -55v-337q0 -42 22.5 -58.5t51.5 -16.5h254v30h-142q-32 0 -46.5 14t-14.5 36v162h161v30h-161v144q0 22 11 33t38 11h154z" />
<glyph unicode="&#xeb;" horiz-adv-x="420" d="M188 664q0 23 -15.5 38.5t-38.5 15.5t-38.5 -15.5t-15.5 -38.5t15.5 -38.5t38.5 -15.5t38.5 15.5t15.5 38.5zM360 664q0 23 -15.5 38.5t-38.5 15.5t-38.5 -15.5t-15.5 -38.5t15.5 -38.5t38.5 -15.5t38.5 15.5t15.5 38.5zM381 460v30h-253q-37 0 -56 -23t-19 -55v-337 q0 -42 22.5 -58.5t51.5 -16.5h254v30h-142q-32 0 -46.5 14t-14.5 36v162h161v30h-161v144q0 22 11 33t38 11h154z" />
<glyph unicode="&#xec;" horiz-adv-x="209" d="M165 490h-121v-490h121v490zM15 725q-12 0 -19.5 -7.5t-7.5 -18.5t4.5 -17t11.5 -10q11 -7 28.5 -17.5t36 -21.5t37 -21.5t32.5 -18.5q-11 13 -24.5 30t-27.5 34t-26.5 32t-20.5 24q-11 12 -24 12z" />
<glyph unicode="&#xed;" horiz-adv-x="209" d="M165 490h-121v-490h121v490zM214 672q7 4 11.5 10t4.5 17t-7.5 18.5t-19.5 7.5q-13 0 -24 -12q-8 -9 -20.5 -24t-26.5 -32l-28 -34t-24 -30q14 8 32.5 18.5t37 21.5t36 21.5t28.5 17.5z" />
<glyph unicode="&#xee;" horiz-adv-x="209" d="M166 490h-121v-490h121v490zM83 724l-114 -115h34l100 72l100 -72h35l-114 115h-41z" />
<glyph unicode="&#xef;" horiz-adv-x="209" d="M164 490h-121v-490h121v490zM72 664q0 23 -15.5 38.5t-38.5 15.5t-38.5 -15.5t-15.5 -38.5t15.5 -38.5t38.5 -15.5t38.5 15.5t15.5 38.5zM244 664q0 23 -15.5 38.5t-38.5 15.5t-38.5 -15.5t-15.5 -38.5t15.5 -38.5t38.5 -15.5t38.5 15.5t15.5 38.5z" />
<glyph unicode="&#xf0;" horiz-adv-x="612" d="M151 245q0 42 9.5 82.5t29 72t49.5 51t70 19.5q39 0 69 -19.5t50.5 -51t30.5 -72t10 -82.5t-9.5 -82t-29.5 -71.5t-50 -51t-71 -19.5q-39 0 -68.5 19t-49.5 50.5t-30 72t-10 82.5zM430 483q-26 11 -56 16.5t-65 5.5q-69 0 -120.5 -22t-86.5 -58.5t-52.5 -83.5t-17.5 -96 q0 -48 17 -94.5t51 -83t86 -59t123 -22.5t123.5 22t87.5 58t52 82.5t17 96.5q0 75 -21 140t-53 119.5t-70 96.5t-71 71l91 57l-40 26l-88 -55q-50 34 -105 51l-36 -35q50 -17 96 -44l-87 -55l40 -26l86 54q12 -12 25.5 -29t27 -38.5t25.5 -45.5t21 -49z" />
<glyph unicode="&#xf1;" horiz-adv-x="525" d="M106 653l28 -27q11 11 28 22t46 11q20 0 33 -6t25 -14q14 -10 29.5 -18t41.5 -8q35 0 58 14t40 32l-23 26q-13 -13 -29.5 -23.5t-39.5 -10.5q-22 0 -36.5 8t-28.5 16t-29 15t-36 7q-40 0 -64.5 -14t-42.5 -30zM51 429v-429h30v351q0 12 5 19.5t15 7.5t15.5 -5.5 t13.5 -16.5l271 -333q11 -13 20 -19t25 -6q18 0 26 9t8 23v460h-30v-275q0 -11 -5 -15t-13 -4t-13.5 5t-10.5 11l-192 237q-21 26 -43.5 37.5t-52.5 11.5t-49.5 -18t-19.5 -51z" />
<glyph unicode="&#xf2;" horiz-adv-x="612" d="M235 725q-12 0 -19.5 -7.5t-7.5 -18.5t4.5 -17t11.5 -10q11 -7 28.5 -17.5t36 -21.5t37 -21.5t32.5 -18.5q-11 13 -24.5 30t-27.5 34t-26.5 32t-20.5 24q-11 12 -24 12zM589 245q0 49 -18 95.5t-53.5 83t-87.5 59t-121 22.5t-120.5 -22t-86.5 -58.5t-52.5 -83.5 t-17.5 -96q0 -48 17 -94.5t51 -83t86 -59t123 -22.5t124 22t87.5 58.5t51.5 83t17 95.5zM151 245q0 42 9.5 82.5t29 72t49.5 51t70 19.5q39 0 69 -19.5t50.5 -51t30.5 -72t10 -82.5t-9.5 -82t-29.5 -71.5t-50 -51t-71 -19.5q-39 0 -68.5 19t-49.5 50.5t-30 72t-10 82.5z" />
<glyph unicode="&#xf3;" horiz-adv-x="612" d="M398 672q7 4 11.5 10t4.5 17t-7.5 18.5t-19.5 7.5q-13 0 -24 -12q-8 -9 -20.5 -24t-26.5 -32l-28 -34t-24 -30q14 8 32.5 18.5t37 21.5t36 21.5t28.5 17.5zM589 245q0 49 -18 95.5t-53.5 83t-87.5 59t-121 22.5t-120.5 -22t-86.5 -58.5t-52.5 -83.5t-17.5 -96 q0 -48 17 -94.5t51 -83t86 -59t123 -22.5t124 22t87.5 58.5t51.5 83t17 95.5zM151 245q0 42 9.5 82.5t29 72t49.5 51t70 19.5q39 0 69 -19.5t50.5 -51t30.5 -72t10 -82.5t-9.5 -82t-29.5 -71.5t-50 -51t-71 -19.5q-39 0 -68.5 19t-49.5 50.5t-30 72t-10 82.5z" />
<glyph unicode="&#xf4;" horiz-adv-x="612" d="M289 724l-114 -115h34l100 72l100 -72h35l-114 115h-41zM589 245q0 49 -18 95.5t-53.5 83t-87.5 59t-121 22.5t-120.5 -22t-86.5 -58.5t-52.5 -83.5t-17.5 -96q0 -48 17 -94.5t51 -83t86 -59t123 -22.5t124 22t87.5 58.5t51.5 83t17 95.5zM151 245q0 42 9.5 82.5t29 72 t49.5 51t70 19.5q39 0 69 -19.5t50.5 -51t30.5 -72t10 -82.5t-9.5 -82t-29.5 -71.5t-50 -51t-71 -19.5q-39 0 -68.5 19t-49.5 50.5t-30 72t-10 82.5z" />
<glyph unicode="&#xf5;" horiz-adv-x="612" d="M132 653l28 -27q11 11 28 22t46 11q20 0 33 -6t25 -14q14 -10 29.5 -18t41.5 -8q35 0 58 14t40 32l-23 26q-13 -13 -29.5 -23.5t-39.5 -10.5q-22 0 -36.5 8t-28.5 16t-29 15t-36 7q-40 0 -64.5 -14t-42.5 -30zM589 245q0 49 -18 95.5t-53.5 83t-87.5 59t-121 22.5 t-120.5 -22t-86.5 -58.5t-52.5 -83.5t-17.5 -96q0 -48 17 -94.5t51 -83t86 -59t123 -22.5t124 22t87.5 58.5t51.5 83t17 95.5zM151 245q0 42 9.5 82.5t29 72t49.5 51t70 19.5q39 0 69 -19.5t50.5 -51t30.5 -72t10 -82.5t-9.5 -82t-29.5 -71.5t-50 -51t-71 -19.5 q-39 0 -68.5 19t-49.5 50.5t-30 72t-10 82.5z" />
<glyph unicode="&#xf6;" horiz-adv-x="612" d="M276 664q0 23 -15.5 38.5t-38.5 15.5t-38.5 -15.5t-15.5 -38.5t15.5 -38.5t38.5 -15.5t38.5 15.5t15.5 38.5zM448 664q0 23 -15.5 38.5t-38.5 15.5t-38.5 -15.5t-15.5 -38.5t15.5 -38.5t38.5 -15.5t38.5 15.5t15.5 38.5zM589 245q0 49 -18 95.5t-53.5 83t-87.5 59 t-121 22.5t-120.5 -22t-86.5 -58.5t-52.5 -83.5t-17.5 -96q0 -48 17 -94.5t51 -83t86 -59t123 -22.5t124 22t87.5 58.5t51.5 83t17 95.5zM151 245q0 42 9.5 82.5t29 72t49.5 51t70 19.5q39 0 69 -19.5t50.5 -51t30.5 -72t10 -82.5t-9.5 -82t-29.5 -71.5t-50 -51t-71 -19.5 q-39 0 -68.5 19t-49.5 50.5t-30 72t-10 82.5z" />
<glyph unicode="&#xf7;" horiz-adv-x="372" d="M294 284h-225v-50h225v50zM227 127q0 19 -13.5 32.5t-32.5 13.5t-32.5 -13.5t-13.5 -32.5t13.5 -32.5t32.5 -13.5t32.5 13.5t13.5 32.5zM227 394q0 19 -13.5 32.5t-32.5 13.5t-32.5 -13.5t-13.5 -32.5t13.5 -32.5t32.5 -13.5t32.5 13.5t13.5 32.5z" />
<glyph unicode="&#xf8;" horiz-adv-x="612" d="M589 245q0 55 -22 106.5t-67 89.5l40 44l-30 25l-42 -46q-32 20 -71.5 30.5t-87.5 10.5q-69 0 -120.5 -22t-86.5 -58.5t-52.5 -83.5t-17.5 -96q0 -51 18 -98.5t55 -84.5l-46 -52l30 -26l46 52q33 -23 76.5 -36.5t97.5 -13.5q71 0 124 22t87.5 58.5t51.5 83t17 95.5z M309 470q36 0 64 -16t48 -43l-251 -278q-19 55 -19 112q0 42 9.5 82.5t29 72t49.5 51t70 19.5zM188 95l254 281q14 -29 20.5 -62.5t6.5 -68.5q0 -42 -9.5 -82t-29.5 -71.5t-50 -51t-71 -19.5t-71 20.5t-50 53.5z" />
<glyph unicode="&#xf9;" horiz-adv-x="525" d="M187 725q-12 0 -19.5 -7.5t-7.5 -18.5t4.5 -17t11.5 -10q11 -7 28.5 -17.5t36 -21.5t37 -21.5t32.5 -18.5q-11 13 -24.5 30t-27.5 34t-26.5 32t-20.5 24q-11 12 -24 12zM170 174v316h-125v-304q0 -56 23 -93t58.5 -59.5t77.5 -31.5t80 -9q37 0 73.5 10.5t65.5 33 t47.5 57.5t18.5 84v312h-30v-313q0 -39 -13.5 -66.5t-34.5 -44.5t-46.5 -25t-49.5 -8q-29 0 -55 7.5t-46 24.5t-32 43.5t-12 65.5z" />
<glyph unicode="&#xfa;" horiz-adv-x="525" d="M396 672q7 4 11.5 10t4.5 17t-7.5 18.5t-19.5 7.5q-13 0 -24 -12q-8 -9 -20.5 -24t-26.5 -32l-28 -34t-24 -30q14 8 32.5 18.5t37 21.5t36 21.5t28.5 17.5zM170 174v316h-125v-304q0 -56 23 -93t58.5 -59.5t77.5 -31.5t80 -9q37 0 73.5 10.5t65.5 33t47.5 57.5t18.5 84 v312h-30v-313q0 -39 -13.5 -66.5t-34.5 -44.5t-46.5 -25t-49.5 -8q-29 0 -55 7.5t-46 24.5t-32 43.5t-12 65.5z" />
<glyph unicode="&#xfb;" horiz-adv-x="525" d="M271 724l-114 -115h34l100 72l100 -72h35l-114 115h-41zM170 174v316h-125v-304q0 -56 23 -93t58.5 -59.5t77.5 -31.5t80 -9q37 0 73.5 10.5t65.5 33t47.5 57.5t18.5 84v312h-30v-313q0 -39 -13.5 -66.5t-34.5 -44.5t-46.5 -25t-49.5 -8q-29 0 -55 7.5t-46 24.5t-32 43.5 t-12 65.5z" />
<glyph unicode="&#xfc;" horiz-adv-x="525" d="M246 664q0 23 -15.5 38.5t-38.5 15.5t-38.5 -15.5t-15.5 -38.5t15.5 -38.5t38.5 -15.5t38.5 15.5t15.5 38.5zM418 664q0 23 -15.5 38.5t-38.5 15.5t-38.5 -15.5t-15.5 -38.5t15.5 -38.5t38.5 -15.5t38.5 15.5t15.5 38.5zM170 174v316h-125v-304q0 -56 23 -93t58.5 -59.5 t77.5 -31.5t80 -9q37 0 73.5 10.5t65.5 33t47.5 57.5t18.5 84v312h-30v-313q0 -39 -13.5 -66.5t-34.5 -44.5t-46.5 -25t-49.5 -8q-29 0 -55 7.5t-46 24.5t-32 43.5t-12 65.5z" />
<glyph unicode="&#xfd;" horiz-adv-x="595" d="M162 490h-141l256 -486l-103 -192h34l363 678h-36l-188 -356zM427 672q7 4 11.5 10t4.5 17t-7.5 18.5t-19.5 7.5q-13 0 -24 -12q-8 -9 -20.5 -24t-26.5 -32l-28 -34t-24 -30q14 8 32.5 18.5t37 21.5t36 21.5t28.5 17.5z" />
<glyph unicode="&#xfe;" horiz-adv-x="608" d="M54 748v-948h125v200h106q75 0 131 21t93.5 55.5t56 78.5t18.5 90t-18.5 90t-56 78.5t-93.5 55.5t-131 21h-106v258h-125zM179 30v430h97q47 0 81 -18.5t56 -48.5t32.5 -69t10.5 -79t-10.5 -78.5t-32 -69t-56 -49t-82.5 -18.5h-96z" />
<glyph unicode="&#xff;" horiz-adv-x="595" d="M276 664q0 23 -15.5 38.5t-38.5 15.5t-38.5 -15.5t-15.5 -38.5t15.5 -38.5t38.5 -15.5t38.5 15.5t15.5 38.5zM448 664q0 23 -15.5 38.5t-38.5 15.5t-38.5 -15.5t-15.5 -38.5t15.5 -38.5t38.5 -15.5t38.5 15.5t15.5 38.5zM162 490h-141l256 -486l-103 -192h34l363 678h-36 l-188 -356z" />
<glyph unicode="&#x152;" horiz-adv-x="1015" d="M734 700q-37 0 -62 -19t-39 -45q-45 35 -104 54.5t-134 19.5q-93 0 -163 -31t-117 -82t-70.5 -116.5t-23.5 -133.5t23.5 -133t70 -116t116.5 -82t164 -31q74 0 132 19t103 52q8 -31 33.5 -43.5t56.5 -12.5h272v39h-174q-27 0 -45 15t-18 41v253h234v39h-234v224 q0 26 11 37.5t31 11.5h195v40h-258zM162 347q0 60 14.5 118t44 103.5t73 73.5t101.5 28t101.5 -27.5t72.5 -73t43.5 -103.5t14.5 -119q0 -60 -14.5 -118t-43.5 -103t-72.5 -73t-101.5 -28t-101.5 27.5t-73 73t-44 103.5t-14.5 118z" />
<glyph unicode="&#x153;" horiz-adv-x="845" d="M309 -14q53 0 94 12t73 33q10 -17 26.5 -24t36.5 -7h254v30h-142q-32 0 -46.5 14t-14.5 36v162h161v30h-161v144q0 22 11 33t38 11h154v30h-253q-22 0 -37.5 -9t-25.5 -23q-34 22 -75.5 34.5t-92.5 12.5q-69 0 -120.5 -22t-86.5 -58.5t-52.5 -83.5t-17.5 -96 q0 -48 17 -94.5t51 -83t86 -59t123 -22.5zM151 245q0 42 9.5 82.5t29 72t49.5 51t70 19.5q39 0 69 -19.5t50.5 -51t30.5 -72t10 -82.5t-9.5 -82t-29.5 -71.5t-50 -51t-71 -19.5q-39 0 -68.5 19t-49.5 50.5t-30 72t-10 82.5z" />
<glyph unicode="&#x160;" horiz-adv-x="621" d="M523 579l30 26q-14 17 -33.5 34.5t-47.5 32t-64 23.5t-81 9q-59 0 -109 -13.5t-86.5 -39t-57 -62.5t-20.5 -85q0 -50 20.5 -86t55.5 -60t82 -39t100 -23q73 -11 114 -46t41 -92q0 -60 -37 -95t-123 -35q-48 0 -86.5 13t-67.5 32.5t-50 42.5t-34 42l-34 -22 q15 -23 39 -48.5t57.5 -48t77 -37t98.5 -14.5q59 0 111 14.5t90.5 41.5t60.5 66t22 89q0 57 -21.5 98.5t-59 70.5t-88.5 46.5t-110 27.5q-65 11 -100 35.5t-35 73.5q0 55 42 84t119 29q61 0 107 -23.5t78 -61.5zM356 738l114 115h-34l-100 -72l-100 72h-35l114 -115h41z" />
<glyph unicode="&#x161;" horiz-adv-x="455" d="M389 455v35h-210q-26 0 -53 -7t-49 -23.5t-36 -43.5t-14 -66q0 -38 15 -65t40.5 -45t59 -28t71.5 -15q65 -8 92 -29.5t27 -59.5q0 -22 -9.5 -36t-25 -22.5t-35.5 -11.5t-41 -3h-178v-35h201q94 0 141 34t47 113q0 67 -48.5 109.5t-140.5 59.5q-65 12 -95 26t-30 46 q0 38 23.5 52.5t77.5 14.5h170zM251 603l114 115h-34l-100 -72l-100 72h-35l114 -115h41z" />
<glyph unicode="&#x178;" horiz-adv-x="640" d="M315 802q0 20 -14 34.5t-34 14.5t-34.5 -14.5t-14.5 -34.5t14.5 -34.5t34.5 -14.5t34 14.5t14 34.5zM480 802q0 20 -14.5 34.5t-34.5 14.5t-34 -14.5t-14 -34.5t14 -34.5t34 -14.5t34.5 14.5t14.5 34.5zM175 700h-164l245 -352v-348h138v358l238 342h-49l-204 -291z" />
<glyph unicode="&#x192;" horiz-adv-x="556" d="M511 462h-462v-462h462v462z" />
<glyph unicode="&#x2c6;" horiz-adv-x="350" d="M157 724l-114 -115h34l100 72l100 -72h35l-114 115h-41z" />
<glyph unicode="&#x2dc;" horiz-adv-x="412" d="M44 653l28 -27q11 11 28 22t46 11q20 0 33 -6t25 -14q14 -10 29.5 -18t41.5 -8q35 0 58 14t40 32l-23 26q-13 -13 -29.5 -23.5t-39.5 -10.5q-22 0 -36.5 8t-28.5 16t-29 15t-36 7q-40 0 -64.5 -14t-42.5 -30z" />
<glyph unicode="&#x2013;" horiz-adv-x="520" d="M445 284h-376v-50h376v50z" />
<glyph unicode="&#x2014;" horiz-adv-x="670" d="M613 284h-544v-50h544v50z" />
<glyph unicode="&#x2018;" horiz-adv-x="235" d="M95 725q-17 0 -26.5 -9.5t-9.5 -26.5q0 -12 5 -18.5t10 -12.5q26 -30 53.5 -61t55.5 -63q-13 42 -26 83t-25 79q-10 29 -37 29z" />
<glyph unicode="&#x2019;" horiz-adv-x="235" d="M163 658q5 6 10 12.5t5 18.5q0 17 -9.5 26.5t-26.5 9.5q-27 0 -37 -29q-12 -38 -25 -79t-26 -83q28 32 55.5 63t53.5 61z" />
<glyph unicode="&#x201a;" horiz-adv-x="220" d="M162 98q5 6 10 12.5t5 18.5q0 17 -9.5 26.5t-26.5 9.5q-27 0 -37 -29q-12 -38 -25 -79t-26 -83q28 32 55.5 63t53.5 61z" />
<glyph unicode="&#x201c;" horiz-adv-x="380" d="M95 725q-17 0 -26.5 -9.5t-9.5 -26.5q0 -12 5 -18.5t10 -12.5q26 -30 53.5 -61t55.5 -63q-13 42 -26 83t-25 79q-10 29 -37 29zM244 725q-17 0 -26.5 -9.5t-9.5 -26.5q0 -12 5 -18.5t10 -12.5q26 -30 53.5 -61t55.5 -63q-13 42 -26 83t-25 79q-10 29 -37 29z" />
<glyph unicode="&#x201d;" horiz-adv-x="380" d="M307 658q5 6 10 12.5t5 18.5q0 17 -9.5 26.5t-26.5 9.5q-27 0 -37 -29q-12 -38 -25 -79t-26 -83q28 32 55.5 63t53.5 61zM158 658q5 6 10 12.5t5 18.5q0 17 -9.5 26.5t-26.5 9.5q-27 0 -37 -29q-12 -38 -25 -79t-26 -83q28 32 55.5 63t53.5 61z" />
<glyph unicode="&#x201e;" horiz-adv-x="380" d="M311 98q5 6 10 12.5t5 18.5q0 17 -9.5 26.5t-26.5 9.5q-27 0 -37 -29q-12 -38 -25 -79t-26 -83q28 32 55.5 63t53.5 61zM162 98q5 6 10 12.5t5 18.5q0 17 -9.5 26.5t-26.5 9.5q-27 0 -37 -29q-12 -38 -25 -79t-26 -83q28 32 55.5 63t53.5 61z" />
<glyph unicode="&#x2020;" horiz-adv-x="245" d="M116 250h28v323h67v28h-67v135h-28v-135h-67v-28h67v-323z" />
<glyph unicode="&#x2021;" horiz-adv-x="245" d="M116 80h28v329h67v28h-67v142h67v27h-67v130h-28v-130h-67v-27h67v-142h-67v-28h67v-329z" />
<glyph unicode="&#x2022;" horiz-adv-x="355" d="M329 278q0 31 -12 58t-32 47t-47 32t-58 12t-58 -12t-47.5 -32t-32 -47t-11.5 -58t11.5 -58t32 -47.5t47.5 -32t58 -11.5t58 11.5t47 32t32 47.5t12 58z" />
<glyph unicode="&#x2026;" horiz-adv-x="628" d="M166 41q0 19 -13.5 32.5t-32.5 13.5t-32.5 -13.5t-13.5 -32.5t13.5 -32.5t32.5 -13.5t32.5 13.5t13.5 32.5zM359 41q0 19 -13.5 32.5t-32.5 13.5t-32.5 -13.5t-13.5 -32.5t13.5 -32.5t32.5 -13.5t32.5 13.5t13.5 32.5zM552 41q0 19 -13.5 32.5t-32.5 13.5t-32.5 -13.5 t-13.5 -32.5t13.5 -32.5t32.5 -13.5t32.5 13.5t13.5 32.5z" />
<glyph unicode="&#x2030;" horiz-adv-x="1400" d="M476 521q0 43 -18 79t-48 61.5t-69 39.5t-82 14t-82.5 -14.5t-69.5 -40.5t-47.5 -61t-17.5 -76q0 -45 18.5 -81.5t49 -62t69.5 -39.5t80 -14q43 0 82.5 14t69.5 39.5t47.5 61.5t17.5 80zM134 523q0 47 10 80.5t27 54.5t39.5 31t48.5 10t49 -10t40 -31.5t26.5 -55.5 t9.5 -81q0 -49 -8 -82.5t-24 -54t-39 -29.5t-54 -9q-29 0 -52.5 9t-39.5 30t-24.5 54.5t-8.5 83.5zM900 186q0 43 -18 79t-48 61.5t-69 39.5t-82 14t-82.5 -14.5t-69.5 -40.5t-47.5 -61t-17.5 -76q0 -45 18.5 -81.5t49 -62t69.5 -39.5t80 -14q43 0 82.5 14t69.5 39.5 t47.5 61.5t17.5 80zM558 188q0 47 10 80.5t27 54.5t39.5 31t48.5 10t49 -10t40 -31.5t26.5 -55.5t9.5 -81q0 -49 -8 -82.5t-24 -54t-39 -29.5t-54 -9q-29 0 -52.5 9t-39.5 30t-24.5 54.5t-8.5 83.5zM142 0h47l604 700h-47zM1375 186q0 43 -18 79t-48 61.5t-69 39.5t-82 14 t-82.5 -14.5t-69.5 -40.5t-47.5 -61t-17.5 -76q0 -45 18.5 -81.5t49 -62t69.5 -39.5t80 -14q43 0 82.5 14t69.5 39.5t47.5 61.5t17.5 80zM1033 188q0 47 10 80.5t27 54.5t39.5 31t48.5 10t49 -10t40 -31.5t26.5 -55.5t9.5 -81q0 -49 -8 -82.5t-24 -54t-39 -29.5t-54 -9 q-29 0 -52.5 9t-39.5 30t-24.5 54.5t-8.5 83.5z" />
<glyph unicode="&#x2039;" d="M270 435l-223 -185l223 -180h68l-162 180l162 185h-68z" />
<glyph unicode="&#x203a;" horiz-adv-x="400" d="M59 70h68l223 180l-223 185h-68l162 -185z" />
<glyph unicode="&#x2122;" horiz-adv-x="490" d="M212 654h-150v-15h67v-198h16v198h67v15zM266 655l-47 -212h17l34 155l63 -166l64 165l33 -154h17l-44 212l-70 -179z" />
<glyph unicode="&#x25fc;" horiz-adv-x="490" d="M0 490h490v-490h-490v490z" />
<glyph unicode="&#xe000;" horiz-adv-x="0" />
<glyph unicode="&#xe001;" horiz-adv-x="0" />
<glyph unicode="&#xe003;" horiz-adv-x="464" d="M407 285h-350v-41h350v41z" />
<glyph unicode="&#xe004;" d="M355 376h-313v-30h313v30zM89 314v-12h124l-111 -110h101q17 0 25.5 -9.5t8.5 -21.5q0 -15 -10 -25l-138 -136h67l128 129q12 12 12 31q0 17 -13 32.5t-41 15.5h-67l108 106h-194zM219 728l-115 -13l2 -16l52 7v-292h61v314z" />
<glyph unicode="&#xe005;" d="M354 380h-306v-30h306v30zM274 315h-59l-161 -210h160v-104h60v104h38v18h-38v192zM219 728l-115 -13l2 -16l52 7v-292h61v314zM214 123h-118l118 161v-161z" />
<glyph unicode="&#xe006;" d="M349 378h-312v-30h312v30zM74 657h21q3 18 24 36.5t57 18.5t52 -14t16 -44q0 -25 -12 -42t-29 -36l-144 -162h231v18h-155l107 121q20 24 34.5 46.5t14.5 54.5q0 35 -27 55.5t-81 20.5q-28 0 -47.5 -7.5t-32.5 -18.5t-20 -24t-9 -23zM80 313v-12h124l-111 -110h101 q17 0 25.5 -9.5t8.5 -21.5q0 -15 -10 -25l-138 -136h67l128 129q12 12 12 31q0 17 -13 32.5t-41 15.5h-67l108 106h-194z" />
<glyph unicode="&#xe007;" d="M345 380h-307v-30h307v30zM91 727v-12h124l-111 -110h101q17 0 25.5 -9.5t8.5 -21.5q0 -15 -10 -25l-138 -136h67l128 129q12 12 12 31q0 17 -13 32.5t-41 15.5h-67l108 106h-194zM274 313h-59l-161 -210h160v-104h60v104h38v18h-38v192zM214 121h-118l118 161v-161z" />
<glyph unicode="&#xe008;" horiz-adv-x="730" d="M660 600h-600v-600h600v600zM640 580v-560h-560v560h560z" />
<glyph unicode="&#xe009;" horiz-adv-x="633" d="M77 224l-33 -73q34 -19 59.5 -58.5t51.5 -97.5q34 64 81.5 130t103 126.5t117.5 113t125 90.5v100q-37 -22 -80 -59t-87 -83t-86 -96.5t-76.5 -98.5t-60 -90t-36.5 -71q-13 47 -32.5 88t-46.5 79z" />
<glyph unicode="&#xe00a;" horiz-adv-x="776" d="M326 261v126h124v-126h-124zM277 528v-92h-92q-41 0 -70 25.5t-29 67.5q0 45 27.5 73t70.5 28q23 0 40.5 -8.5t29 -22.5t17.5 -32.5t6 -38.5zM183 387h94v-126h-94q-30 0 -56.5 -10.5t-46 -29.5t-30.5 -45.5t-11 -59.5q0 -63 39 -102.5t102 -39.5q36 0 63.5 11t46 30.5 t27.5 46t9 56.5v94h124v-94q0 -30 9 -56.5t27.5 -46t46 -30.5t63.5 -11q63 0 102 39.5t39 102.5q0 33 -11.5 59.5t-31 45.5t-45.5 29.5t-56 10.5h-94v126h94q30 0 56 10.5t45.5 29.5t31 45.5t11.5 59.5q0 63 -39 102.5t-102 39.5q-36 0 -63.5 -11.5t-46 -31t-27.5 -45.5 t-9 -56v-94h-124v94q0 30 -9 56t-27.5 45.5t-46 31t-63.5 11.5q-63 0 -102 -39.5t-39 -102.5q0 -33 11 -59.5t30.5 -45.5t46 -29.5t56.5 -10.5zM690 529q0 -42 -29 -67.5t-70 -25.5h-92v92q0 20 6 38.5t17.5 32.5t29 22.5t40.5 8.5q43 0 70.5 -28t27.5 -73zM499 120v92h92 q41 0 70 -25.5t29 -67.5q0 -45 -27.5 -73t-70.5 -28q-23 0 -40.5 8.5t-29 22.5t-17.5 32.5t-6 38.5zM86 119q0 42 29 67.5t70 25.5h92v-92q0 -20 -6 -38.5t-17.5 -32.5t-29 -22.5t-40.5 -8.5q-43 0 -70.5 28t-27.5 73z" />
<glyph unicode="&#xe00b;" horiz-adv-x="365" />
<glyph unicode="&#xe00c;" horiz-adv-x="535" d="M266 500l-230 -230l230 -230l230 230zM451 270l-185 -185l-185 185l185 185z" />
<glyph unicode="&#xe00d;" horiz-adv-x="790" d="M275 530q-44 0 -79.5 -14.5t-60 -40.5t-38 -62t-13.5 -78q0 -71 27 -134t64.5 -110t77 -74.5t65.5 -27.5q19 0 36 7.5t30 23.5q7 8 18 12t22 4t21.5 -4t17.5 -12q27 -33 73 -33q39 0 70.5 21.5t56.5 52.5t42.5 65t28.5 59q-20 6 -38 18t-32.5 30t-23 41.5t-8.5 52.5 q0 26 6.5 46t17 35.5t25 29t31.5 25.5q-3 15 -17 27.5t-33 21.5t-42 14t-44 5q-25 0 -47 -6.5t-37 -18.5q-20 -16 -35.5 -21.5t-30.5 -5.5t-27 6.5t-33 20.5q-17 12 -41 18t-50 6zM534 669q-21 0 -42.5 -12.5t-39.5 -32t-29.5 -43t-11.5 -46.5q0 -6 2 -11.5t10 -5.5 q24 0 46 15t38.5 37t26.5 46.5t10 43.5q0 9 -10 9z" />
</font>
</defs>
</svg>
